<svg width="583" height="329" viewBox="0 0 583 329" fill="none" xmlns="http://www.w3.org/2000/svg">
<mask id="path-1-inside-1_1811_8136" fill="white">
<path fill-rule="evenodd" clip-rule="evenodd" d="M84.6104 0.351074C69.1464 0.351074 56.6104 12.8871 56.6104 28.3511V316.28C56.6104 318.489 58.4012 320.28 60.6104 320.28H523.841C526.05 320.28 527.841 318.489 527.841 316.28V28.3511C527.841 12.8871 515.305 0.351074 499.841 0.351074H84.6104ZM511.094 19.4082H71.625V295.448H511.094V19.4082Z"/>
</mask>
<path fill-rule="evenodd" clip-rule="evenodd" d="M84.6104 0.351074C69.1464 0.351074 56.6104 12.8871 56.6104 28.3511V316.28C56.6104 318.489 58.4012 320.28 60.6104 320.28H523.841C526.05 320.28 527.841 318.489 527.841 316.28V28.3511C527.841 12.8871 515.305 0.351074 499.841 0.351074H84.6104ZM511.094 19.4082H71.625V295.448H511.094V19.4082Z" fill="#1A202C"/>
<path d="M71.625 19.4082V17.4082H69.625V19.4082H71.625ZM511.094 19.4082H513.094V17.4082H511.094V19.4082ZM71.625 295.448H69.625V297.448H71.625V295.448ZM511.094 295.448V297.448H513.094V295.448H511.094ZM58.6104 28.3511C58.6104 13.9917 70.2509 2.35107 84.6104 2.35107V-1.64893C68.0418 -1.64893 54.6104 11.7825 54.6104 28.3511H58.6104ZM58.6104 316.28V28.3511H54.6104V316.28H58.6104ZM60.6104 318.28C59.5058 318.28 58.6104 317.384 58.6104 316.28H54.6104C54.6104 319.593 57.2966 322.28 60.6104 322.28V318.28ZM523.841 318.28H60.6104V322.28H523.841V318.28ZM525.841 316.28C525.841 317.384 524.945 318.28 523.841 318.28V322.28C527.154 322.28 529.841 319.593 529.841 316.28H525.841ZM525.841 28.3511V316.28H529.841V28.3511H525.841ZM499.841 2.35107C514.2 2.35107 525.841 13.9917 525.841 28.3511H529.841C529.841 11.7825 516.409 -1.64893 499.841 -1.64893V2.35107ZM84.6104 2.35107H499.841V-1.64893H84.6104V2.35107ZM71.625 21.4082H511.094V17.4082H71.625V21.4082ZM73.625 295.448V19.4082H69.625V295.448H73.625ZM511.094 293.448H71.625V297.448H511.094V293.448ZM509.094 19.4082V295.448H513.094V19.4082H509.094Z" fill="#4A5568" mask="url(#path-1-inside-1_1811_8136)"/>
<path fill-rule="evenodd" clip-rule="evenodd" d="M81.498 3.23828C69.3478 3.23828 59.498 13.088 59.498 25.2383V308.152H524.954V25.2383C524.954 13.088 515.104 3.23828 502.954 3.23828H81.498ZM511.094 19.4082H71.625V295.448H511.094V19.4082Z" fill="black"/>
<path d="M0.0166016 319.97C0.0166016 318.866 0.912032 317.97 2.0166 317.97H580.125C581.229 317.97 582.125 318.866 582.125 319.97V321.435H0.0166016V319.97Z" fill="#A3ACB1"/>
<path d="M0.0166016 319.97C0.0166016 318.866 0.912032 317.97 2.0166 317.97H580.125C581.229 317.97 582.125 318.866 582.125 319.97V321.435H0.0166016V319.97Z" fill="url(#paint0_linear_1811_8136)"/>
<path d="M0.0166016 321.435H582.125V321.435C559.275 326.043 536.022 328.364 512.712 328.364H63.146C41.9131 328.364 20.7439 326.041 0.0166016 321.435V321.435Z" fill="#647279"/>
<path d="M0.0166016 321.435H582.125V321.435C559.275 326.043 536.022 328.364 512.712 328.364H63.146C41.9131 328.364 20.7439 326.041 0.0166016 321.435V321.435Z" fill="url(#paint1_linear_1811_8136)"/>
<path fill-rule="evenodd" clip-rule="evenodd" d="M248.356 317.97C248.654 319.905 247.212 321.435 251.802 321.435H330.918C335.508 321.435 334.067 319.905 334.364 317.97H248.356Z" fill="#96A1A8"/>
<path fill-rule="evenodd" clip-rule="evenodd" d="M248.356 317.97C248.654 319.905 247.212 321.435 251.802 321.435H330.918C335.508 321.435 334.067 319.905 334.364 317.97H248.356Z" fill="url(#paint2_linear_1811_8136)"/>
<defs>
<linearGradient id="paint0_linear_1811_8136" x1="0.0166016" y1="319.703" x2="582.125" y2="319.703" gradientUnits="userSpaceOnUse">
<stop stop-color="#0D1012"/>
<stop offset="0.0295345" stop-color="#CAD4DB"/>
<stop offset="0.0625" stop-color="#242729"/>
<stop offset="0.133609" stop-color="#A3ACB1"/>
<stop offset="0.865967" stop-color="#A3ACB1"/>
<stop offset="0.941937" stop-color="#242729"/>
<stop offset="0.971275" stop-color="#CAD4DB"/>
<stop offset="0.996436" stop-color="#0D1012"/>
</linearGradient>
<linearGradient id="paint1_linear_1811_8136" x1="291.071" y1="321.435" x2="291.071" y2="328.364" gradientUnits="userSpaceOnUse">
<stop stop-color="#7A7F83"/>
<stop offset="1" stop-color="#0B0B0E"/>
</linearGradient>
<linearGradient id="paint2_linear_1811_8136" x1="252.669" y1="320.073" x2="331.785" y2="320.073" gradientUnits="userSpaceOnUse">
<stop stop-color="#3C3C3C"/>
<stop offset="0.317518" stop-color="#3C3C3C" stop-opacity="0"/>
<stop offset="0.660584" stop-color="#3C3C3C" stop-opacity="0"/>
<stop offset="1" stop-color="#444444"/>
</linearGradient>
</defs>
</svg>
