<svg width="24" height="24" viewBox="0 0 24 24" fill="none" xmlns="http://www.w3.org/2000/svg">
<path d="M16.0416 2H7.95743C6.37781 2.00186 4.86345 2.63025 3.74659 3.74729C2.62973 4.86434 2.00159 6.37882 2 7.95843L2 16.0426C2.00186 17.6222 2.63025 19.1366 3.74729 20.2534C4.86434 21.3703 6.37882 21.9984 7.95843 22H16.0426C17.6222 21.9981 19.1366 21.3698 20.2534 20.2527C21.3703 19.1357 21.9984 17.6212 22 16.0416V7.95743C21.9981 6.37781 21.3698 4.86345 20.2527 3.74659C19.1357 2.62973 17.6212 2.00159 16.0416 2V2ZM19.9885 16.0416C19.9885 16.5599 19.8864 17.0731 19.688 17.552C19.4897 18.0308 19.199 18.466 18.8325 18.8325C18.466 19.199 18.0308 19.4897 17.552 19.688C17.0731 19.8864 16.5599 19.9885 16.0416 19.9885H7.95743C6.91081 19.9882 5.90716 19.5723 5.16719 18.8321C4.42722 18.0919 4.01152 17.0882 4.01152 16.0416V7.95743C4.01179 6.91081 4.42774 5.90716 5.1679 5.16719C5.90806 4.42722 6.91182 4.01152 7.95843 4.01152H16.0426C17.0892 4.01179 18.0928 4.42774 18.8328 5.1679C19.5728 5.90806 19.9885 6.91182 19.9885 7.95843V16.0426V16.0416Z" fill="#697279"/>
<path d="M11.9983 6.44446C10.5258 6.44674 9.11429 7.03276 8.07318 8.07407C7.03208 9.11537 6.44633 10.527 6.44434 11.9995C6.44604 13.4723 7.03182 14.8844 8.07318 15.926C9.11455 16.9675 10.5265 17.5536 11.9994 17.5556C13.4724 17.5539 14.8846 16.9679 15.9262 15.9263C16.9678 14.8847 17.5537 13.4725 17.5554 11.9995C17.5532 10.5266 16.9668 9.11479 15.9251 8.07362C14.8833 7.03246 13.4711 6.44696 11.9983 6.44553V6.44446ZM11.9983 15.3951C11.098 15.3951 10.2346 15.0375 9.59797 14.4009C8.96136 13.7643 8.60372 12.9008 8.60372 12.0006C8.60372 11.1003 8.96136 10.2368 9.59797 9.60024C10.2346 8.96364 11.098 8.606 11.9983 8.606C12.8986 8.606 13.762 8.96364 14.3986 9.60024C15.0352 10.2368 15.3928 11.1003 15.3928 12.0006C15.3928 12.9008 15.0352 13.7643 14.3986 14.4009C13.762 15.0375 12.8986 15.3951 11.9983 15.3951Z" fill="#697279"/>
<path d="M17.5554 7.5556C18.1691 7.5556 18.6666 7.05813 18.6666 6.44449C18.6666 5.83084 18.1691 5.33337 17.5554 5.33337C16.9418 5.33337 16.4443 5.83084 16.4443 6.44449C16.4443 7.05813 16.9418 7.5556 17.5554 7.5556Z" fill="#697279"/>
</svg>
