<svg width="447" height="537" viewBox="0 0 447 537" fill="none" xmlns="http://www.w3.org/2000/svg">
<path fill-rule="evenodd" clip-rule="evenodd" d="M5.92796 23.1478C1.81446 31.221 1.81446 41.7894 1.81446 62.9263V86.732H0.725784C0.324945 86.732 0 87.0569 0 87.4578V107.054C0 107.455 0.324945 107.78 0.725784 107.78H1.81446V124.836H0.725784C0.324945 124.836 0 125.161 0 125.561V164.754C0 165.155 0.324945 165.48 0.725784 165.48H1.81446V174.552H0.725784C0.324945 174.552 0 174.877 0 175.278V214.47C0 214.871 0.324945 215.196 0.725784 215.196H1.81446V474.518C1.81446 495.655 1.81446 506.224 5.92796 514.297C9.5463 521.398 15.3199 527.172 22.4213 530.79C30.4945 534.904 41.0629 534.904 62.1997 534.904H200.897C222.034 534.904 232.602 534.904 240.676 530.79C247.777 527.172 253.551 521.398 257.169 514.297C261.282 506.224 261.282 495.655 261.282 474.518V202.495H262.371C262.772 202.495 263.097 202.17 263.097 201.769V140.077C263.097 139.676 262.772 139.351 262.371 139.351H261.282V62.9263C261.282 41.7894 261.282 31.221 257.169 23.1478C253.551 16.0465 247.777 10.2729 240.676 6.65451C232.602 2.54102 222.034 2.54102 200.897 2.54102H62.1997C41.0629 2.54102 30.4945 2.54102 22.4213 6.65451C15.3199 10.2729 9.5463 16.0465 5.92796 23.1478ZM14.5156 55.0872C14.5156 41.2669 14.5156 34.3568 17.2052 29.0782C19.5711 24.435 23.3461 20.6599 27.9893 18.2941C33.2679 15.6045 40.1781 15.6045 53.9983 15.6045H66.127C66.7277 15.6045 67.028 15.6045 67.2686 15.692C67.6718 15.8388 67.9894 16.1564 68.1361 16.5596C68.2237 16.8001 68.2237 17.1005 68.2237 17.7012C68.2237 22.507 68.2237 24.9099 68.924 26.8341C70.098 30.0596 72.6389 32.6005 75.8645 33.7746C77.7886 34.4749 80.1915 34.4749 84.9973 34.4749H178.099C182.905 34.4749 185.308 34.4749 187.232 33.7746C190.458 32.6005 192.999 30.0596 194.173 26.8341C194.873 24.9099 194.873 22.507 194.873 17.7012C194.873 17.1005 194.873 16.8001 194.961 16.5596C195.107 16.1564 195.425 15.8388 195.828 15.692C196.069 15.6045 196.369 15.6045 196.97 15.6045H209.098C222.919 15.6045 229.829 15.6045 235.107 18.2941C239.751 20.6599 243.526 24.435 245.891 29.0782C248.581 34.3568 248.581 41.2669 248.581 55.0872V482.356C248.581 496.177 248.581 503.087 245.891 508.365C243.526 513.009 239.751 516.784 235.107 519.149C229.829 521.839 222.919 521.839 209.098 521.839H53.9983C40.1781 521.839 33.2679 521.839 27.9893 519.149C23.3461 516.784 19.5711 513.009 17.2052 508.365C14.5156 503.087 14.5156 496.177 14.5156 482.356V55.0872Z" fill="#144571"/>
<g filter="url(#filter0_ii_1815_8205)">
<path fill-rule="evenodd" clip-rule="evenodd" d="M1.81445 62.9255C1.81445 41.7887 1.81445 31.2203 5.92795 23.1471C9.54629 16.0457 15.3199 10.2721 22.4213 6.65378C30.4945 2.54028 41.0629 2.54028 62.1997 2.54028H200.897C222.034 2.54028 232.602 2.54028 240.676 6.65378C247.777 10.2721 253.551 16.0457 257.169 23.1471C261.282 31.2203 261.282 41.7887 261.282 62.9255V474.518C261.282 495.655 261.282 506.223 257.169 514.296C253.551 521.398 247.777 527.171 240.676 530.79C232.602 534.903 222.034 534.903 200.897 534.903H62.1997C41.0629 534.903 30.4945 534.903 22.4213 530.79C15.3199 527.171 9.54629 521.398 5.92795 514.296C1.81445 506.223 1.81445 495.655 1.81445 474.518V62.9255ZM14.5156 55.0872C14.5156 41.2669 14.5156 34.3568 17.2052 29.0782C19.5711 24.435 23.3461 20.6599 27.9893 18.2941C33.2679 15.6045 40.1781 15.6045 53.9983 15.6045H66.127C66.7277 15.6045 67.028 15.6045 67.2686 15.692C67.6718 15.8388 67.9894 16.1564 68.1361 16.5596C68.2237 16.8001 68.2237 17.1005 68.2237 17.7012C68.2237 22.507 68.2237 24.9099 68.924 26.8341C70.098 30.0596 72.6389 32.6005 75.8645 33.7746C77.7886 34.4749 80.1915 34.4749 84.9973 34.4749H178.099C182.905 34.4749 185.308 34.4749 187.232 33.7746C190.458 32.6005 192.999 30.0596 194.173 26.8341C194.873 24.9099 194.873 22.507 194.873 17.7012C194.873 17.1005 194.873 16.8001 194.961 16.5596C195.107 16.1564 195.425 15.8388 195.828 15.692C196.069 15.6045 196.369 15.6045 196.97 15.6045H209.098C222.919 15.6045 229.829 15.6045 235.107 18.2941C239.751 20.6599 243.526 24.435 245.891 29.0782C248.581 34.3568 248.581 41.2669 248.581 55.0872V482.356C248.581 496.177 248.581 503.087 245.891 508.365C243.526 513.009 239.751 516.784 235.107 519.149C229.829 521.839 222.919 521.839 209.098 521.839H53.9983C40.1781 521.839 33.2679 521.839 27.9893 519.149C23.3461 516.784 19.5711 513.009 17.2052 508.365C14.5156 503.087 14.5156 496.177 14.5156 482.356V55.0872Z" fill="#050505"/>
</g>
<path fill-rule="evenodd" clip-rule="evenodd" d="M206.123 0V5.44475C223.165 5.46282 232.166 5.71658 239.16 9.27999C245.783 12.6548 251.168 18.0398 254.543 24.6632C257.352 30.1765 258.104 36.9375 258.306 47.9019H262.735V52.9823H258.363C258.379 55.6754 258.379 58.5922 258.379 61.7642V475.679C258.379 479.726 258.379 483.357 258.346 486.638H262.735V491.718H258.257C257.993 501.418 257.161 507.641 254.543 512.78C251.168 519.403 245.783 524.788 239.16 528.163C231.63 532 221.773 532 202.059 532H61.0386C58.2894 532 55.7319 532 53.3457 531.989V536.355H48.2652V531.944C36.6553 531.772 29.6311 531.064 23.9376 528.163C17.3142 524.788 11.9292 519.403 8.5544 512.78C5.93606 507.641 5.10463 501.418 4.84061 491.718H0.363281V486.638H4.75095C4.71777 483.357 4.71777 479.726 4.71777 475.679V61.7642C4.71777 58.5922 4.71777 55.6753 4.73376 52.9823H0.363281V47.9019H4.79146C4.99293 36.9375 5.74523 30.1765 8.5544 24.6632C11.9292 18.0398 17.3142 12.6548 23.9376 9.27999C31.4674 5.44336 41.3245 5.44336 61.0386 5.44336H201.043V0H206.123ZM14.5156 55.0872C14.5156 41.2669 14.5156 34.3568 17.2052 29.0782C19.5711 24.435 23.3461 20.6599 27.9893 18.2941C33.2679 15.6045 40.1781 15.6045 53.9983 15.6045H66.127C66.7277 15.6045 67.028 15.6045 67.2686 15.692C67.6718 15.8388 67.9894 16.1564 68.1361 16.5596C68.2237 16.8001 68.2237 17.1005 68.2237 17.7012C68.2237 22.507 68.2237 24.9099 68.924 26.8341C70.098 30.0596 72.6389 32.6005 75.8645 33.7746C77.7886 34.4749 80.1915 34.4749 84.9973 34.4749H178.099C182.905 34.4749 185.308 34.4749 187.232 33.7746C190.458 32.6005 192.999 30.0596 194.173 26.8341C194.873 24.9099 194.873 22.507 194.873 17.7012C194.873 17.1005 194.873 16.8001 194.961 16.5596C195.107 16.1564 195.425 15.8388 195.828 15.692C196.069 15.6045 196.369 15.6045 196.97 15.6045H209.098C222.919 15.6045 229.829 15.6045 235.107 18.2941C239.751 20.6599 243.526 24.435 245.891 29.0782C248.581 34.3568 248.581 41.2669 248.581 55.0872V482.356C248.581 496.177 248.581 503.087 245.891 508.365C243.526 513.009 239.751 516.784 235.107 519.149C229.829 521.839 222.919 521.839 209.098 521.839H53.9983C40.1781 521.839 33.2679 521.839 27.9893 519.149C23.3461 516.784 19.5711 513.009 17.2052 508.365C14.5156 503.087 14.5156 496.177 14.5156 482.356V55.0872Z" fill="black"/>
<g filter="url(#filter1_iiii_1815_8205)">
<path fill-rule="evenodd" clip-rule="evenodd" d="M0.725784 86.7312C0.324945 86.7312 0 87.0561 0 87.457V107.053C0 107.454 0.324945 107.779 0.725784 107.779H1.81446V86.7312H0.725784ZM0.725784 124.835C0.324945 124.835 0 125.16 0 125.561V164.753C0 165.154 0.324945 165.479 0.725784 165.479H1.81446V124.835H0.725784ZM261.282 139.35H262.371C262.772 139.35 263.097 139.675 263.097 140.076V201.768C263.097 202.169 262.772 202.494 262.371 202.494H261.282V139.35ZM0.725784 174.551C0.324945 174.551 0 174.876 0 175.277V214.469C0 214.87 0.324945 215.195 0.725784 215.195H1.81446V174.551H0.725784Z" fill="url(#paint0_linear_1815_8205)"/>
</g>
<g filter="url(#filter2_i_1815_8205)">
<path d="M117.577 22.4992C117.577 21.0963 118.714 19.959 120.117 19.959H143.342C144.745 19.959 145.883 21.0963 145.883 22.4992C145.883 23.9022 144.745 25.0395 143.342 25.0395H120.117C118.714 25.0395 117.577 23.9022 117.577 22.4992Z" fill="#161616"/>
</g>
<g filter="url(#filter3_f_1815_8205)">
<path d="M120.117 20.959H143.342C144.193 20.959 144.883 21.6486 144.883 22.4992C144.883 23.3499 144.193 24.0395 143.342 24.0395H120.117C119.267 24.0395 118.577 23.3499 118.577 22.4992C118.577 21.6486 119.267 20.959 120.117 20.959Z" stroke="black" stroke-opacity="0.32" stroke-width="2"/>
</g>
<path d="M120.117 20.459H143.342C144.469 20.459 145.383 21.3724 145.383 22.4992C145.383 23.626 144.469 24.5395 143.342 24.5395H120.117C118.991 24.5395 118.077 23.626 118.077 22.4992C118.077 21.3724 118.991 20.459 120.117 20.459Z" stroke="url(#paint1_linear_1815_8205)"/>
<path d="M151.689 22.4994C151.689 19.6936 153.964 17.4189 156.77 17.4189C159.576 17.4189 161.85 19.6936 161.85 22.4994C161.85 25.3053 159.576 27.5799 156.77 27.5799C153.964 27.5799 151.689 25.3053 151.689 22.4994Z" fill="url(#paint2_radial_1815_8205)"/>
<path d="M151.689 22.4994C151.689 19.6936 153.964 17.4189 156.77 17.4189C159.576 17.4189 161.85 19.6936 161.85 22.4994C161.85 25.3053 159.576 27.5799 156.77 27.5799C153.964 27.5799 151.689 25.3053 151.689 22.4994Z" fill="url(#paint3_radial_1815_8205)"/>
<path d="M159.31 22.4992C159.31 21.0963 158.173 19.959 156.77 19.959C155.367 19.959 154.229 21.0963 154.229 22.4992C154.229 23.9022 155.367 25.0395 156.77 25.0395C158.173 25.0395 159.31 23.9022 159.31 22.4992Z" fill="url(#paint4_linear_1815_8205)"/>
<path d="M159.31 22.4992C159.31 21.0963 158.173 19.959 156.77 19.959C155.367 19.959 154.229 21.0963 154.229 22.4992C154.229 23.9022 155.367 25.0395 156.77 25.0395C158.173 25.0395 159.31 23.9022 159.31 22.4992Z" fill="url(#paint5_radial_1815_8205)"/>
<path d="M159.31 22.4992C159.31 21.0963 158.173 19.959 156.77 19.959C155.367 19.959 154.229 21.0963 154.229 22.4992C154.229 23.9022 155.367 25.0395 156.77 25.0395C158.173 25.0395 159.31 23.9022 159.31 22.4992Z" fill="url(#paint6_radial_1815_8205)"/>
<path d="M159.31 22.4992C159.31 21.0963 158.173 19.959 156.77 19.959C155.367 19.959 154.229 21.0963 154.229 22.4992C154.229 23.9022 155.367 25.0395 156.77 25.0395C158.173 25.0395 159.31 23.9022 159.31 22.4992Z" fill="url(#paint7_radial_1815_8205)"/>
<path d="M159.31 22.4992C159.31 21.0963 158.173 19.959 156.77 19.959C155.367 19.959 154.229 21.0963 154.229 22.4992C154.229 23.9022 155.367 25.0395 156.77 25.0395C158.173 25.0395 159.31 23.9022 159.31 22.4992Z" fill="url(#paint8_radial_1815_8205)"/>
<mask id="mask0_1815_8205" style="mask-type:alpha" maskUnits="userSpaceOnUse" x="261" y="52" width="186" height="449">
<rect width="185.591" height="447.512" transform="matrix(-1 0 0 1 446.873 52.9492)" fill="#C4C4C4"/>
</mask>
<g mask="url(#mask0_1815_8205)">
<path fill-rule="evenodd" clip-rule="evenodd" d="M232.185 71.8248C228.831 78.408 228.831 87.0258 228.831 104.262V123.674H227.943C227.617 123.674 227.352 123.939 227.352 124.265V140.245C227.352 140.572 227.617 140.837 227.943 140.837H228.831V154.745H227.943C227.617 154.745 227.352 155.01 227.352 155.337V187.295C227.352 187.622 227.617 187.887 227.943 187.887H228.831V195.285H227.943C227.617 195.285 227.352 195.55 227.352 195.877V227.836C227.352 228.163 227.617 228.428 227.943 228.428H228.831V439.889C228.831 457.124 228.831 465.742 232.185 472.326C235.136 478.116 239.844 482.824 245.635 485.775C252.218 489.129 260.836 489.129 278.071 489.129H391.17C408.406 489.129 417.024 489.129 423.607 485.775C429.398 482.824 434.106 478.116 437.056 472.326C440.411 465.742 440.411 457.124 440.411 439.889V218.071H441.298C441.625 218.071 441.89 217.806 441.89 217.479V167.173C441.89 166.846 441.625 166.581 441.298 166.581H440.411V104.262C440.411 87.0258 440.411 78.408 437.056 71.8248C434.106 66.0341 429.398 61.3261 423.607 58.3755C417.024 55.0212 408.406 55.0212 391.17 55.0212H278.071C260.836 55.0212 252.218 55.0212 245.635 58.3755C239.844 61.3261 235.136 66.0341 232.185 71.8248ZM239.188 97.8693C239.188 86.5998 239.188 80.965 241.381 76.6606C243.311 72.8744 246.389 69.7961 250.175 67.8669C254.479 65.6737 260.114 65.6737 271.384 65.6737H281.274C281.764 65.6737 282.009 65.6737 282.205 65.7451C282.534 65.8647 282.793 66.1237 282.912 66.4525C282.984 66.6486 282.984 66.8935 282.984 67.3834C282.984 71.3022 282.984 73.2617 283.555 74.8307C284.512 77.4609 286.584 79.5329 289.214 80.4902C290.783 81.0613 292.743 81.0613 296.661 81.0613H372.58C376.499 81.0613 378.458 81.0613 380.027 80.4902C382.658 79.5329 384.73 77.4609 385.687 74.8307C386.258 73.2617 386.258 71.3022 386.258 67.3834C386.258 66.8935 386.258 66.6486 386.329 66.4525C386.449 66.1237 386.708 65.8647 387.037 65.7451C387.233 65.6737 387.478 65.6737 387.968 65.6737H397.858C409.127 65.6737 414.762 65.6737 419.067 67.8669C422.853 69.7961 425.931 72.8744 427.86 76.6606C430.054 80.965 430.054 86.5997 430.054 97.8693V446.28C430.054 457.55 430.054 463.184 427.86 467.489C425.931 471.275 422.853 474.353 419.067 476.282C414.762 478.476 409.127 478.476 397.858 478.476H271.384C260.114 478.476 254.479 478.476 250.175 476.282C246.389 474.353 243.311 471.275 241.381 467.489C239.188 463.184 239.188 457.55 239.188 446.28V97.8693Z" fill="#144571"/>
<g filter="url(#filter4_ii_1815_8205)">
<path fill-rule="evenodd" clip-rule="evenodd" d="M228.831 104.261C228.831 87.0253 228.831 78.4075 232.185 71.8243C235.136 66.0336 239.844 61.3256 245.635 58.375C252.218 55.0208 260.836 55.0208 278.071 55.0208H391.17C408.406 55.0208 417.024 55.0208 423.607 58.375C429.398 61.3256 434.106 66.0336 437.056 71.8243C440.411 78.4075 440.411 87.0253 440.411 104.261V439.888C440.411 457.124 440.411 465.742 437.056 472.325C434.106 478.116 429.398 482.824 423.607 485.774C417.024 489.129 408.406 489.129 391.17 489.129H278.071C260.836 489.129 252.218 489.129 245.635 485.774C239.844 482.824 235.136 478.116 232.185 472.325C228.831 465.742 228.831 457.124 228.831 439.888V104.261ZM239.188 97.8694C239.188 86.5999 239.188 80.9651 241.381 76.6607C243.31 72.8745 246.389 69.7962 250.175 67.867C254.479 65.6738 260.114 65.6738 271.384 65.6738H281.274C281.764 65.6738 282.009 65.6738 282.205 65.7452C282.533 65.8648 282.792 66.1238 282.912 66.4526C282.984 66.6487 282.984 66.8937 282.984 67.3835C282.984 71.3024 282.984 73.2618 283.555 74.8308C284.512 77.461 286.584 79.533 289.214 80.4903C290.783 81.0614 292.743 81.0614 296.661 81.0614H372.58C376.499 81.0614 378.458 81.0614 380.027 80.4903C382.658 79.533 384.73 77.461 385.687 74.8308C386.258 73.2618 386.258 71.3024 386.258 67.3835C386.258 66.8937 386.258 66.6487 386.329 66.4526C386.449 66.1238 386.708 65.8648 387.037 65.7452C387.233 65.6738 387.478 65.6738 387.968 65.6738H397.858C409.127 65.6738 414.762 65.6738 419.067 67.867C422.853 69.7962 425.931 72.8745 427.86 76.6607C430.053 80.9651 430.053 86.5999 430.053 97.8694V446.28C430.053 457.55 430.053 463.184 427.86 467.489C425.931 471.275 422.853 474.353 419.067 476.283C414.762 478.476 409.127 478.476 397.858 478.476H271.384C260.114 478.476 254.479 478.476 250.175 476.283C246.389 474.353 243.31 471.275 241.381 467.489C239.188 463.184 239.188 457.55 239.188 446.28V97.8694Z" fill="#050505"/>
</g>
<path fill-rule="evenodd" clip-rule="evenodd" d="M395.432 52.9492V57.3891C409.329 57.4038 416.669 57.6107 422.372 60.5165C427.773 63.2684 432.164 67.6595 434.916 73.0605C437.206 77.5562 437.82 83.0694 437.984 92.0101H441.596V96.1529H438.031C438.044 98.3489 438.044 100.727 438.044 103.314V440.835C438.044 444.135 438.044 447.096 438.017 449.771H441.596V453.914H437.944C437.729 461.824 437.051 466.898 434.916 471.089C432.164 476.49 427.773 480.881 422.372 483.633C416.231 486.761 408.194 486.761 392.118 486.761H277.125C274.884 486.761 272.798 486.761 270.852 486.753V490.312H266.709V486.716C257.242 486.575 251.515 485.998 246.872 483.633C241.471 480.881 237.08 476.49 234.328 471.089C232.193 466.898 231.515 461.824 231.299 453.914H227.648V449.771H231.226C231.199 447.096 231.199 444.135 231.199 440.835V103.314C231.199 100.727 231.199 98.3489 231.212 96.1529H227.648V92.0101H231.259C231.424 83.0694 232.037 77.5562 234.328 73.0605C237.08 67.6595 241.471 63.2684 246.872 60.5165C253.012 57.3879 261.05 57.3879 277.125 57.3879H391.29V52.9492H395.432ZM239.189 97.8693C239.189 86.5998 239.189 80.965 241.382 76.6606C243.311 72.8744 246.389 69.7961 250.176 67.8669C254.48 65.6737 260.115 65.6737 271.384 65.6737H281.275C281.764 65.6737 282.009 65.6737 282.205 65.7451C282.534 65.8647 282.793 66.1237 282.913 66.4525C282.984 66.6486 282.984 66.8935 282.984 67.3833V67.3834C282.984 71.3023 282.984 73.2617 283.555 74.8307C284.513 77.4609 286.585 79.5329 289.215 80.4902C290.784 81.0613 292.743 81.0613 296.662 81.0613H372.581C376.5 81.0613 378.459 81.0613 380.028 80.4902C382.658 79.5329 384.73 77.4609 385.688 74.8307C386.259 73.2617 386.259 71.3023 386.259 67.3834C386.259 66.8936 386.259 66.6486 386.33 66.4525C386.45 66.1237 386.709 65.8647 387.038 65.7451C387.234 65.6737 387.479 65.6737 387.968 65.6737H397.859C409.128 65.6737 414.763 65.6737 419.067 67.8669C422.854 69.7961 425.932 72.8744 427.861 76.6606C430.054 80.965 430.054 86.5998 430.054 97.8693V446.28C430.054 457.55 430.054 463.184 427.861 467.489C425.932 471.275 422.854 474.353 419.067 476.282C414.763 478.476 409.128 478.476 397.859 478.476H271.384C260.115 478.476 254.48 478.476 250.176 476.282C246.389 474.353 243.311 471.275 241.382 467.489C239.189 463.184 239.189 457.55 239.189 446.28V97.8693Z" fill="black"/>
<g filter="url(#filter5_iiii_1815_8205)">
<path fill-rule="evenodd" clip-rule="evenodd" d="M227.943 123.673C227.617 123.673 227.352 123.938 227.352 124.265V140.244C227.352 140.571 227.617 140.836 227.943 140.836H228.831V123.673H227.943ZM227.943 154.744C227.617 154.744 227.352 155.009 227.352 155.336V187.295C227.352 187.622 227.617 187.887 227.943 187.887H228.831V154.744H227.943ZM440.411 166.58H441.298C441.625 166.58 441.89 166.845 441.89 167.172V217.478C441.89 217.805 441.625 218.07 441.298 218.07H440.411V166.58ZM227.943 195.284C227.617 195.284 227.352 195.549 227.352 195.876V227.835C227.352 228.162 227.617 228.427 227.943 228.427H228.831V195.284H227.943Z" fill="url(#paint9_linear_1815_8205)"/>
</g>
<g filter="url(#filter6_i_1815_8205)">
<path d="M323.228 71.2958C323.228 70.1518 324.155 69.2244 325.299 69.2244H344.238C345.382 69.2244 346.309 70.1518 346.309 71.2958C346.309 72.4398 345.382 73.3672 344.238 73.3672H325.299C324.155 73.3672 323.228 72.4398 323.228 71.2958Z" fill="#161616"/>
</g>
<g filter="url(#filter7_f_1815_8205)">
<path d="M325.299 70.2244H344.238C344.829 70.2244 345.309 70.7041 345.309 71.2958C345.309 71.8875 344.829 72.3672 344.238 72.3672H325.299C324.707 72.3672 324.228 71.8875 324.228 71.2958C324.228 70.7041 324.707 70.2244 325.299 70.2244Z" stroke="black" stroke-opacity="0.32" stroke-width="2"/>
</g>
<path d="M325.299 69.7244H344.238C345.105 69.7244 345.809 70.4279 345.809 71.2958C345.809 72.1636 345.105 72.8672 344.238 72.8672H325.299C324.431 72.8672 323.728 72.1636 323.728 71.2958C323.728 70.4279 324.431 69.7244 325.299 69.7244Z" stroke="url(#paint10_linear_1815_8205)"/>
<path d="M351.044 71.2959C351.044 69.0079 352.899 67.1531 355.187 67.1531C357.475 67.1531 359.33 69.0079 359.33 71.2959C359.33 73.5839 357.475 75.4387 355.187 75.4387C352.899 75.4387 351.044 73.5839 351.044 71.2959Z" fill="url(#paint11_radial_1815_8205)"/>
<path d="M351.044 71.2959C351.044 69.0079 352.899 67.1531 355.187 67.1531C357.475 67.1531 359.33 69.0079 359.33 71.2959C359.33 73.5839 357.475 75.4387 355.187 75.4387C352.899 75.4387 351.044 73.5839 351.044 71.2959Z" fill="url(#paint12_radial_1815_8205)"/>
<path d="M357.258 71.2958C357.258 70.1518 356.331 69.2244 355.187 69.2244C354.043 69.2244 353.115 70.1518 353.115 71.2958C353.115 72.4398 354.043 73.3672 355.187 73.3672C356.331 73.3672 357.258 72.4398 357.258 71.2958Z" fill="url(#paint13_linear_1815_8205)"/>
<path d="M357.258 71.2958C357.258 70.1518 356.331 69.2244 355.187 69.2244C354.043 69.2244 353.115 70.1518 353.115 71.2958C353.115 72.4398 354.043 73.3672 355.187 73.3672C356.331 73.3672 357.258 72.4398 357.258 71.2958Z" fill="url(#paint14_radial_1815_8205)"/>
<path d="M357.258 71.2958C357.258 70.1518 356.331 69.2244 355.187 69.2244C354.043 69.2244 353.115 70.1518 353.115 71.2958C353.115 72.4398 354.043 73.3672 355.187 73.3672C356.331 73.3672 357.258 72.4398 357.258 71.2958Z" fill="url(#paint15_radial_1815_8205)"/>
<path d="M357.258 71.2958C357.258 70.1518 356.331 69.2244 355.187 69.2244C354.043 69.2244 353.115 70.1518 353.115 71.2958C353.115 72.4398 354.043 73.3672 355.187 73.3672C356.331 73.3672 357.258 72.4398 357.258 71.2958Z" fill="url(#paint16_radial_1815_8205)"/>
<path d="M357.258 71.2958C357.258 70.1518 356.331 69.2244 355.187 69.2244C354.043 69.2244 353.115 70.1518 353.115 71.2958C353.115 72.4398 354.043 73.3672 355.187 73.3672C356.331 73.3672 357.258 72.4398 357.258 71.2958Z" fill="url(#paint17_radial_1815_8205)"/>
</g>
<defs>
<filter id="filter0_ii_1815_8205" x="1.81445" y="2.54028" width="259.468" height="532.363" filterUnits="userSpaceOnUse" color-interpolation-filters="sRGB">
<feFlood flood-opacity="0" result="BackgroundImageFix"/>
<feBlend mode="normal" in="SourceGraphic" in2="BackgroundImageFix" result="shape"/>
<feColorMatrix in="SourceAlpha" type="matrix" values="0 0 0 0 0 0 0 0 0 0 0 0 0 0 0 0 0 0 127 0" result="hardAlpha"/>
<feOffset/>
<feGaussianBlur stdDeviation="5"/>
<feComposite in2="hardAlpha" operator="arithmetic" k2="-1" k3="1"/>
<feColorMatrix type="matrix" values="0 0 0 0 1 0 0 0 0 1 0 0 0 0 1 0 0 0 0.88 0"/>
<feBlend mode="normal" in2="shape" result="effect1_innerShadow_1815_8205"/>
<feColorMatrix in="SourceAlpha" type="matrix" values="0 0 0 0 0 0 0 0 0 0 0 0 0 0 0 0 0 0 127 0" result="hardAlpha"/>
<feOffset/>
<feGaussianBlur stdDeviation="2.5"/>
<feComposite in2="hardAlpha" operator="arithmetic" k2="-1" k3="1"/>
<feColorMatrix type="matrix" values="0 0 0 0 0 0 0 0 0 0 0 0 0 0 0 0 0 0 1 0"/>
<feBlend mode="normal" in2="effect1_innerShadow_1815_8205" result="effect2_innerShadow_1815_8205"/>
</filter>
<filter id="filter1_iiii_1815_8205" x="0" y="84.7312" width="263.097" height="132.464" filterUnits="userSpaceOnUse" color-interpolation-filters="sRGB">
<feFlood flood-opacity="0" result="BackgroundImageFix"/>
<feBlend mode="normal" in="SourceGraphic" in2="BackgroundImageFix" result="shape"/>
<feColorMatrix in="SourceAlpha" type="matrix" values="0 0 0 0 0 0 0 0 0 0 0 0 0 0 0 0 0 0 127 0" result="hardAlpha"/>
<feOffset dy="4"/>
<feGaussianBlur stdDeviation="1"/>
<feComposite in2="hardAlpha" operator="arithmetic" k2="-1" k3="1"/>
<feColorMatrix type="matrix" values="0 0 0 0 1 0 0 0 0 1 0 0 0 0 1 0 0 0 0.08 0"/>
<feBlend mode="normal" in2="shape" result="effect1_innerShadow_1815_8205"/>
<feColorMatrix in="SourceAlpha" type="matrix" values="0 0 0 0 0 0 0 0 0 0 0 0 0 0 0 0 0 0 127 0" result="hardAlpha"/>
<feOffset dy="-4"/>
<feGaussianBlur stdDeviation="1"/>
<feComposite in2="hardAlpha" operator="arithmetic" k2="-1" k3="1"/>
<feColorMatrix type="matrix" values="0 0 0 0 1 0 0 0 0 1 0 0 0 0 1 0 0 0 0.08 0"/>
<feBlend mode="normal" in2="effect1_innerShadow_1815_8205" result="effect2_innerShadow_1815_8205"/>
<feColorMatrix in="SourceAlpha" type="matrix" values="0 0 0 0 0 0 0 0 0 0 0 0 0 0 0 0 0 0 127 0" result="hardAlpha"/>
<feOffset dy="1"/>
<feGaussianBlur stdDeviation="0.5"/>
<feComposite in2="hardAlpha" operator="arithmetic" k2="-1" k3="1"/>
<feColorMatrix type="matrix" values="0 0 0 0 1 0 0 0 0 1 0 0 0 0 1 0 0 0 0.32 0"/>
<feBlend mode="normal" in2="effect2_innerShadow_1815_8205" result="effect3_innerShadow_1815_8205"/>
<feColorMatrix in="SourceAlpha" type="matrix" values="0 0 0 0 0 0 0 0 0 0 0 0 0 0 0 0 0 0 127 0" result="hardAlpha"/>
<feOffset dy="-1"/>
<feGaussianBlur stdDeviation="0.5"/>
<feComposite in2="hardAlpha" operator="arithmetic" k2="-1" k3="1"/>
<feColorMatrix type="matrix" values="0 0 0 0 1 0 0 0 0 1 0 0 0 0 1 0 0 0 0.32 0"/>
<feBlend mode="normal" in2="effect3_innerShadow_1815_8205" result="effect4_innerShadow_1815_8205"/>
</filter>
<filter id="filter2_i_1815_8205" x="117.577" y="19.959" width="28.3057" height="5.08057" filterUnits="userSpaceOnUse" color-interpolation-filters="sRGB">
<feFlood flood-opacity="0" result="BackgroundImageFix"/>
<feBlend mode="normal" in="SourceGraphic" in2="BackgroundImageFix" result="shape"/>
<feColorMatrix in="SourceAlpha" type="matrix" values="0 0 0 0 0 0 0 0 0 0 0 0 0 0 0 0 0 0 127 0" result="hardAlpha"/>
<feOffset/>
<feGaussianBlur stdDeviation="4"/>
<feComposite in2="hardAlpha" operator="arithmetic" k2="-1" k3="1"/>
<feColorMatrix type="matrix" values="0 0 0 0 0 0 0 0 0 0 0 0 0 0 0 0 0 0 0.48 0"/>
<feBlend mode="normal" in2="shape" result="effect1_innerShadow_1815_8205"/>
</filter>
<filter id="filter3_f_1815_8205" x="116.577" y="18.959" width="30.3057" height="7.08057" filterUnits="userSpaceOnUse" color-interpolation-filters="sRGB">
<feFlood flood-opacity="0" result="BackgroundImageFix"/>
<feBlend mode="normal" in="SourceGraphic" in2="BackgroundImageFix" result="shape"/>
<feGaussianBlur stdDeviation="0.5" result="effect1_foregroundBlur_1815_8205"/>
</filter>
<filter id="filter4_ii_1815_8205" x="228.831" y="55.0208" width="211.579" height="434.108" filterUnits="userSpaceOnUse" color-interpolation-filters="sRGB">
<feFlood flood-opacity="0" result="BackgroundImageFix"/>
<feBlend mode="normal" in="SourceGraphic" in2="BackgroundImageFix" result="shape"/>
<feColorMatrix in="SourceAlpha" type="matrix" values="0 0 0 0 0 0 0 0 0 0 0 0 0 0 0 0 0 0 127 0" result="hardAlpha"/>
<feOffset/>
<feGaussianBlur stdDeviation="5"/>
<feComposite in2="hardAlpha" operator="arithmetic" k2="-1" k3="1"/>
<feColorMatrix type="matrix" values="0 0 0 0 1 0 0 0 0 1 0 0 0 0 1 0 0 0 0.88 0"/>
<feBlend mode="normal" in2="shape" result="effect1_innerShadow_1815_8205"/>
<feColorMatrix in="SourceAlpha" type="matrix" values="0 0 0 0 0 0 0 0 0 0 0 0 0 0 0 0 0 0 127 0" result="hardAlpha"/>
<feOffset/>
<feGaussianBlur stdDeviation="2.5"/>
<feComposite in2="hardAlpha" operator="arithmetic" k2="-1" k3="1"/>
<feColorMatrix type="matrix" values="0 0 0 0 0 0 0 0 0 0 0 0 0 0 0 0 0 0 1 0"/>
<feBlend mode="normal" in2="effect1_innerShadow_1815_8205" result="effect2_innerShadow_1815_8205"/>
</filter>
<filter id="filter5_iiii_1815_8205" x="227.352" y="121.673" width="214.538" height="108.754" filterUnits="userSpaceOnUse" color-interpolation-filters="sRGB">
<feFlood flood-opacity="0" result="BackgroundImageFix"/>
<feBlend mode="normal" in="SourceGraphic" in2="BackgroundImageFix" result="shape"/>
<feColorMatrix in="SourceAlpha" type="matrix" values="0 0 0 0 0 0 0 0 0 0 0 0 0 0 0 0 0 0 127 0" result="hardAlpha"/>
<feOffset dy="4"/>
<feGaussianBlur stdDeviation="1"/>
<feComposite in2="hardAlpha" operator="arithmetic" k2="-1" k3="1"/>
<feColorMatrix type="matrix" values="0 0 0 0 1 0 0 0 0 1 0 0 0 0 1 0 0 0 0.08 0"/>
<feBlend mode="normal" in2="shape" result="effect1_innerShadow_1815_8205"/>
<feColorMatrix in="SourceAlpha" type="matrix" values="0 0 0 0 0 0 0 0 0 0 0 0 0 0 0 0 0 0 127 0" result="hardAlpha"/>
<feOffset dy="-4"/>
<feGaussianBlur stdDeviation="1"/>
<feComposite in2="hardAlpha" operator="arithmetic" k2="-1" k3="1"/>
<feColorMatrix type="matrix" values="0 0 0 0 1 0 0 0 0 1 0 0 0 0 1 0 0 0 0.08 0"/>
<feBlend mode="normal" in2="effect1_innerShadow_1815_8205" result="effect2_innerShadow_1815_8205"/>
<feColorMatrix in="SourceAlpha" type="matrix" values="0 0 0 0 0 0 0 0 0 0 0 0 0 0 0 0 0 0 127 0" result="hardAlpha"/>
<feOffset dy="1"/>
<feGaussianBlur stdDeviation="0.5"/>
<feComposite in2="hardAlpha" operator="arithmetic" k2="-1" k3="1"/>
<feColorMatrix type="matrix" values="0 0 0 0 1 0 0 0 0 1 0 0 0 0 1 0 0 0 0.32 0"/>
<feBlend mode="normal" in2="effect2_innerShadow_1815_8205" result="effect3_innerShadow_1815_8205"/>
<feColorMatrix in="SourceAlpha" type="matrix" values="0 0 0 0 0 0 0 0 0 0 0 0 0 0 0 0 0 0 127 0" result="hardAlpha"/>
<feOffset dy="-1"/>
<feGaussianBlur stdDeviation="0.5"/>
<feComposite in2="hardAlpha" operator="arithmetic" k2="-1" k3="1"/>
<feColorMatrix type="matrix" values="0 0 0 0 1 0 0 0 0 1 0 0 0 0 1 0 0 0 0.32 0"/>
<feBlend mode="normal" in2="effect3_innerShadow_1815_8205" result="effect4_innerShadow_1815_8205"/>
</filter>
<filter id="filter6_i_1815_8205" x="323.228" y="69.2244" width="23.0811" height="4.14282" filterUnits="userSpaceOnUse" color-interpolation-filters="sRGB">
<feFlood flood-opacity="0" result="BackgroundImageFix"/>
<feBlend mode="normal" in="SourceGraphic" in2="BackgroundImageFix" result="shape"/>
<feColorMatrix in="SourceAlpha" type="matrix" values="0 0 0 0 0 0 0 0 0 0 0 0 0 0 0 0 0 0 127 0" result="hardAlpha"/>
<feOffset/>
<feGaussianBlur stdDeviation="4"/>
<feComposite in2="hardAlpha" operator="arithmetic" k2="-1" k3="1"/>
<feColorMatrix type="matrix" values="0 0 0 0 0 0 0 0 0 0 0 0 0 0 0 0 0 0 0.48 0"/>
<feBlend mode="normal" in2="shape" result="effect1_innerShadow_1815_8205"/>
</filter>
<filter id="filter7_f_1815_8205" x="322.228" y="68.2244" width="25.0811" height="6.14282" filterUnits="userSpaceOnUse" color-interpolation-filters="sRGB">
<feFlood flood-opacity="0" result="BackgroundImageFix"/>
<feBlend mode="normal" in="SourceGraphic" in2="BackgroundImageFix" result="shape"/>
<feGaussianBlur stdDeviation="0.5" result="effect1_foregroundBlur_1815_8205"/>
</filter>
<linearGradient id="paint0_linear_1815_8205" x1="0" y1="194.523" x2="1.81446" y2="194.523" gradientUnits="userSpaceOnUse">
<stop stop-color="white" stop-opacity="0.08"/>
<stop offset="0.276042" stop-color="white" stop-opacity="0.24"/>
<stop offset="1" stop-color="white" stop-opacity="0"/>
</linearGradient>
<linearGradient id="paint1_linear_1815_8205" x1="131.73" y1="19.959" x2="131.73" y2="25.0395" gradientUnits="userSpaceOnUse">
<stop/>
<stop offset="0.483028" stop-color="#484848"/>
<stop offset="1"/>
</linearGradient>
<radialGradient id="paint2_radial_1815_8205" cx="0" cy="0" r="1" gradientUnits="userSpaceOnUse" gradientTransform="translate(157.677 24.8582) rotate(-127.694) scale(5.04472)">
<stop stop-color="#242424"/>
<stop offset="1" stop-color="#161616"/>
</radialGradient>
<radialGradient id="paint3_radial_1815_8205" cx="0" cy="0" r="1" gradientUnits="userSpaceOnUse" gradientTransform="translate(156.77 22.4994) rotate(90) scale(5.08049)">
<stop offset="0.463542" stop-opacity="0.25"/>
<stop offset="0.645833" stop-opacity="0"/>
</radialGradient>
<linearGradient id="paint4_linear_1815_8205" x1="156.77" y1="19.959" x2="156.77" y2="25.0395" gradientUnits="userSpaceOnUse">
<stop stop-color="#0B528D"/>
<stop offset="0.276042" stop-color="#3625AF"/>
<stop offset="0.510417" stop-color="#070D17"/>
<stop offset="0.734375" stop-color="#16618F"/>
<stop offset="1" stop-color="#021762"/>
</linearGradient>
<radialGradient id="paint5_radial_1815_8205" cx="0" cy="0" r="1" gradientUnits="userSpaceOnUse" gradientTransform="translate(154.774 21.9549) rotate(58.3925) scale(2.76965)">
<stop stop-color="#070D17"/>
<stop offset="1" stop-color="#070D17" stop-opacity="0"/>
</radialGradient>
<radialGradient id="paint6_radial_1815_8205" cx="0" cy="0" r="1" gradientUnits="userSpaceOnUse" gradientTransform="translate(157.133 22.8621) rotate(106.699) scale(1.89435)">
<stop offset="0.146834" stop-color="#070D17"/>
<stop offset="1" stop-color="#070D17" stop-opacity="0"/>
</radialGradient>
<radialGradient id="paint7_radial_1815_8205" cx="0" cy="0" r="1" gradientUnits="userSpaceOnUse" gradientTransform="translate(157.496 21.9549) rotate(128.66) scale(1.16182)">
<stop stop-color="#6356D7"/>
<stop offset="1" stop-color="#15368A" stop-opacity="0"/>
</radialGradient>
<radialGradient id="paint8_radial_1815_8205" cx="0" cy="0" r="1" gradientUnits="userSpaceOnUse" gradientTransform="translate(156.77 22.4992) rotate(90) scale(2.54025)">
<stop offset="0.828125" stop-opacity="0"/>
<stop offset="1" stop-opacity="0.85"/>
</radialGradient>
<linearGradient id="paint9_linear_1815_8205" x1="227.352" y1="211.57" x2="228.831" y2="211.57" gradientUnits="userSpaceOnUse">
<stop stop-color="white" stop-opacity="0.08"/>
<stop offset="0.276042" stop-color="white" stop-opacity="0.24"/>
<stop offset="1" stop-color="white" stop-opacity="0"/>
</linearGradient>
<linearGradient id="paint10_linear_1815_8205" x1="334.768" y1="69.2244" x2="334.768" y2="73.3672" gradientUnits="userSpaceOnUse">
<stop/>
<stop offset="0.483028" stop-color="#484848"/>
<stop offset="1"/>
</linearGradient>
<radialGradient id="paint11_radial_1815_8205" cx="0" cy="0" r="1" gradientUnits="userSpaceOnUse" gradientTransform="translate(355.927 73.2193) rotate(-127.694) scale(4.11365)">
<stop stop-color="#242424"/>
<stop offset="1" stop-color="#161616"/>
</radialGradient>
<radialGradient id="paint12_radial_1815_8205" cx="0" cy="0" r="1" gradientUnits="userSpaceOnUse" gradientTransform="translate(355.187 71.2959) rotate(90) scale(4.14282)">
<stop offset="0.463542" stop-opacity="0.25"/>
<stop offset="0.645833" stop-opacity="0"/>
</radialGradient>
<linearGradient id="paint13_linear_1815_8205" x1="355.187" y1="69.2244" x2="355.187" y2="73.3672" gradientUnits="userSpaceOnUse">
<stop stop-color="#0B528D"/>
<stop offset="0.276042" stop-color="#3625AF"/>
<stop offset="0.510417" stop-color="#070D17"/>
<stop offset="0.734375" stop-color="#16618F"/>
<stop offset="1" stop-color="#021762"/>
</linearGradient>
<radialGradient id="paint14_radial_1815_8205" cx="0" cy="0" r="1" gradientUnits="userSpaceOnUse" gradientTransform="translate(353.559 70.8519) rotate(58.3925) scale(2.25848)">
<stop stop-color="#070D17"/>
<stop offset="1" stop-color="#070D17" stop-opacity="0"/>
</radialGradient>
<radialGradient id="paint15_radial_1815_8205" cx="0" cy="0" r="1" gradientUnits="userSpaceOnUse" gradientTransform="translate(355.483 71.5917) rotate(106.699) scale(1.54472)">
<stop offset="0.146834" stop-color="#070D17"/>
<stop offset="1" stop-color="#070D17" stop-opacity="0"/>
</radialGradient>
<radialGradient id="paint16_radial_1815_8205" cx="0" cy="0" r="1" gradientUnits="userSpaceOnUse" gradientTransform="translate(355.778 70.8519) rotate(128.66) scale(0.947392)">
<stop stop-color="#6356D7"/>
<stop offset="1" stop-color="#15368A" stop-opacity="0"/>
</radialGradient>
<radialGradient id="paint17_radial_1815_8205" cx="0" cy="0" r="1" gradientUnits="userSpaceOnUse" gradientTransform="translate(355.187 71.2958) rotate(90) scale(2.07141)">
<stop offset="0.828125" stop-opacity="0"/>
<stop offset="1" stop-opacity="0.85"/>
</radialGradient>
</defs>
</svg>
