<svg width="56" height="56" viewBox="0 0 56 56" fill="none" xmlns="http://www.w3.org/2000/svg">
<path d="M20.125 55.125H35.875V39.375H20.125V55.125ZM21.875 41.125H34.125V53.375H21.875V41.125Z" fill="black"/>
<path d="M22.75 16.625H33.25C34.6973 16.625 35.875 15.4473 35.875 14V3.5C35.875 2.05275 34.6973 0.875 33.25 0.875H22.75C21.3027 0.875 20.125 2.05275 20.125 3.5V14C20.125 15.4473 21.3027 16.625 22.75 16.625ZM27.125 2.625H28.875V4.375H27.125V2.625ZM21.875 3.5C21.875 3.01787 22.267 2.625 22.75 2.625H25.375V6.125H30.625V2.625H33.25C33.733 2.625 34.125 3.01787 34.125 3.5V14C34.125 14.4821 33.733 14.875 33.25 14.875H22.75C22.267 14.875 21.875 14.4821 21.875 14V3.5Z" fill="black"/>
<path d="M25.3755 49.5128L24.2441 48.3814L23.0068 49.6186L25.3755 51.9873L32.9941 44.3686L31.7568 43.1314L25.3755 49.5128Z" fill="black"/>
<path d="M2.625 9.625H14.6099L11.7644 11.522L12.7356 12.978L19.0776 8.75L12.7356 4.522L11.7644 5.978L14.6099 7.875H0.875V21.875H2.625V9.625Z" fill="black"/>
<path d="M0.875 27.125H2.625V28.875H0.875V27.125Z" fill="black"/>
<path d="M0.875 23.625H2.625V25.375H0.875V23.625Z" fill="black"/>
<path d="M0.875 30.625H2.625V32.375H0.875V30.625Z" fill="black"/>
<path d="M2.625 34.125H0.875V48.125H18.375V46.375H2.625V34.125Z" fill="black"/>
<path d="M7.39112 25.9508C6.61062 26.341 6.125 27.1267 6.125 28C6.125 28.8724 6.61062 29.6581 7.39112 30.0492L15.5435 34.125H42C45.3766 34.125 48.125 31.3766 48.125 28C48.125 24.6225 45.3766 21.875 42 21.875H15.5435L7.39112 25.9508ZM16.625 28.875H35.875V32.375H16.625V28.875ZM37.625 23.625H39.375V32.375H37.625V23.625ZM35.875 27.125H16.625V23.625H35.875V27.125ZM7.875 28C7.875 27.7935 7.98962 27.6089 8.17425 27.5161L14.875 24.1658V31.8342L8.17513 28.4839C7.98963 28.3911 7.875 28.2056 7.875 28ZM46.375 28C46.375 30.4124 44.4124 32.375 42 32.375H41.125V23.625H42C44.4124 23.625 46.375 25.5876 46.375 28Z" fill="black"/>
<path d="M55.1245 27.125H49.8745V28.875H53.3745V46.375H41.3896L44.2351 44.478L43.2639 43.022L36.9219 47.25L43.2639 51.478L44.2351 50.022L41.3896 48.125H55.1245V27.125Z" fill="black"/>
</svg>
