<svg width="56" height="56" viewBox="0 0 56 56" fill="none" xmlns="http://www.w3.org/2000/svg">
<g clip-path="url(#clip0_1517_13290)">
<path d="M16.8671 32.7116C16.6315 32.6283 16.3904 32.5409 16.1501 32.4499V28.6126C16.7541 28.7572 17.114 29.0626 17.1461 29.0905C17.4757 29.3891 17.9851 29.3667 18.2873 29.0391C18.5912 28.7096 18.5704 28.1962 18.2409 27.8924C18.1948 27.8498 17.4195 27.1513 16.1501 26.9608V26.1772C16.1501 25.7291 15.7868 25.3657 15.3387 25.3657C14.8906 25.3657 14.5272 25.7291 14.5272 26.1772V27.0232C14.4068 27.0496 14.2846 27.0802 14.1597 27.1179C12.9989 27.4676 12.1316 28.461 11.8961 29.7105C11.6815 30.8498 12.0464 31.9483 12.8486 32.5776C13.2737 32.911 13.8027 33.2163 14.5273 33.5389V38.4044C13.9005 38.3583 13.4663 38.2053 12.7548 37.7398C12.3797 37.4943 11.8767 37.5995 11.6315 37.9746C11.3862 38.3496 11.4913 38.8525 11.8663 39.0979C12.9037 39.7764 13.6124 39.9788 14.5273 40.0303V40.9078C14.5273 41.3559 14.8907 41.7193 15.3388 41.7193C15.7869 41.7193 16.1502 41.3559 16.1502 40.9078V39.9658C17.9708 39.6085 19.0342 38.1074 19.2699 36.7051C19.5728 34.9022 18.6298 33.3347 16.8671 32.7116ZM13.85 31.3006C13.5264 31.0468 13.3887 30.5527 13.4908 30.0111C13.5822 29.5258 13.9026 28.9427 14.5271 28.7069V31.7334C14.2723 31.5952 14.0418 31.451 13.85 31.3006ZM17.6692 36.4361C17.5443 37.179 17.027 37.9664 16.15 38.2802V34.1787C16.2085 34.1997 16.2658 34.2205 16.3261 34.2418C17.8256 34.7718 17.7333 36.0553 17.6692 36.4361Z" fill="black"/>
<path d="M55.9553 31.6674C55.8157 31.0332 55.3687 30.521 54.7593 30.297L52.4367 29.4433C52.0162 29.2888 51.5498 29.5044 51.3951 29.925C51.2405 30.3457 51.4561 30.812 51.8769 30.9666L54.1995 31.8203C54.3203 31.8647 54.3584 31.962 54.3702 32.016C54.3821 32.0701 54.3885 32.1743 54.2972 32.2654L33.5647 52.9981C33.4733 53.0894 33.369 53.0829 33.3152 53.0711C33.2612 53.0591 33.1639 53.0212 33.1195 52.9001L30.2059 44.9727C30.0138 44.4503 29.6041 44.0407 29.0818 43.8488L21.1545 40.9352C21.0336 40.8907 20.9956 40.7935 20.9837 40.7395C20.9718 40.6854 20.9654 40.5812 21.0565 40.4901L41.7893 19.7574C41.8806 19.6662 41.9846 19.6726 42.0387 19.6844C42.0928 19.6964 42.19 19.7343 42.2344 19.8553L45.1479 27.7826C45.3399 28.3051 45.7497 28.7147 46.2721 28.9066L48.2883 29.6476C48.709 29.8024 49.1753 29.5866 49.3299 29.1659C49.4844 28.7453 49.2688 28.2789 48.8481 28.1244L46.8317 27.3832C46.7573 27.3559 46.6987 27.2974 46.6714 27.2228L43.7579 19.2955C43.5339 18.6861 43.0217 18.2391 42.3876 18.0995C41.7538 17.9598 41.101 18.1508 40.6418 18.6098L39.8569 19.3947V11.3441C39.8569 10.3001 39.0075 9.45066 37.9635 9.45066H29.6987C30.4548 7.98066 30.2186 6.12807 28.9885 4.89815C27.9355 3.84509 26.4084 3.49913 25.0402 3.93663C24.5118 2.40385 23.0558 1.29916 21.3458 1.29916C19.636 1.29916 18.1801 2.40363 17.6516 3.93619C16.2835 3.49793 14.758 3.84323 13.7033 4.89804C12.9652 5.63599 12.5588 6.61719 12.5588 7.66096C12.5588 8.29402 12.7093 8.90379 12.9917 9.45055H12.3109C11.8628 9.45055 11.4995 9.8139 11.4995 10.262C11.4995 10.7101 11.8628 11.0735 12.3109 11.0735H18.0936V18.7537C17.1958 18.5903 16.2819 18.5057 15.363 18.5057C13.6717 18.5057 12.08 18.7693 10.5569 19.2766L4.45791 19.2768V11.3439C4.45791 11.1948 4.5792 11.0735 4.72839 11.0735H8.428C8.87611 11.0735 9.23945 10.7101 9.23945 10.262C9.23945 9.8139 8.87611 9.45055 8.428 9.45055H4.72817C3.68419 9.45055 2.83478 10.3 2.83478 11.3439V24.9703C2.83478 24.9752 2.83544 24.9801 2.83555 24.9851C1.05055 27.4948 0 30.5614 0 33.8686C0 37.1685 1.03491 40.3156 2.99283 42.9699C3.15197 43.1856 3.39752 43.2997 3.64645 43.2997C3.8138 43.2997 3.98256 43.2482 4.12748 43.1412C4.4882 42.8752 4.56488 42.3672 4.29877 42.0065C2.54811 39.6332 1.6228 36.8191 1.6228 33.8685C1.6228 26.2923 7.78652 20.1287 15.3627 20.1287C21.713 20.1287 27.172 24.407 28.6977 30.5537L27.324 31.9274C26.913 29.3762 25.697 27.0265 23.8112 25.1901C21.534 22.9728 18.5336 21.7516 15.3627 21.7516C8.68142 21.7516 3.2457 27.1872 3.2457 33.8685C3.2457 40.5498 8.68131 45.9855 15.3627 45.9855C18.1203 45.9855 20.7912 45.0417 22.9371 43.3195L24.6764 43.9587C22.148 46.2905 18.8164 47.6084 15.3627 47.6084C12.228 47.6084 9.15972 46.5203 6.72306 44.5445C6.37503 44.2622 5.86403 44.3156 5.58173 44.6637C5.29944 45.0119 5.35281 45.5228 5.70095 45.8052C8.4257 48.0146 11.857 49.2314 15.3627 49.2314C19.4992 49.2314 23.4783 47.5417 26.365 44.5793L28.5219 45.372C28.5965 45.3995 28.655 45.458 28.6824 45.5326L31.5959 53.4599C31.8199 54.0693 32.3321 54.5163 32.9661 54.6559C33.1028 54.686 33.2404 54.7007 33.3767 54.7007C33.8726 54.7007 34.3517 54.5057 34.712 54.1456L55.4448 33.413C55.9039 32.9539 56.0947 32.3014 55.9553 31.6674ZM4.45769 23.0589V20.8999H7.13584C6.16361 21.5189 5.26553 22.2439 4.45769 23.0589ZM38.2339 11.3441V19.2769H24.5981V11.0736H37.9634C38.1126 11.0736 38.2339 11.195 38.2339 11.3441ZM27.841 6.04571C28.7316 6.93646 28.7316 8.38579 27.8411 9.27632C27.8055 9.31198 27.7365 9.37104 27.6168 9.45066H23.6632C24.841 7.23505 25.1464 6.15093 25.2253 5.60624C26.0946 5.18121 27.1448 5.34954 27.841 6.04571ZM21.3457 2.92207C22.6054 2.92207 23.6303 3.94691 23.6303 5.20648C23.6303 5.44098 23.4968 6.43541 21.8147 9.45055H20.8768C19.1951 6.43618 19.0613 5.44141 19.0613 5.20648C19.0613 3.94691 20.0861 2.92207 21.3457 2.92207ZM14.8507 9.27643C14.4192 8.84494 14.1816 8.27127 14.1816 7.66107C14.1816 7.05087 14.4192 6.4772 14.8507 6.04571C15.5481 5.34834 16.5968 5.18099 17.4663 5.60668C17.5453 6.15159 17.8504 7.23516 19.0283 9.45066H15.0749C14.9552 9.37115 14.8864 9.31209 14.8507 9.27643ZM19.7163 11.0736H22.9752V19.2769H20.1655C20.1619 19.2769 20.1585 19.2773 20.1549 19.2775C20.0094 19.2296 19.863 19.1845 19.7163 19.141V11.0736ZM24.9645 21.8838C24.5231 21.5295 24.0629 21.2015 23.5875 20.8999H38.234V21.0176L35.0928 24.1589H27.2566C26.5769 23.3262 25.8093 22.5619 24.9645 21.8838ZM28.4155 25.7818H33.4697L30.0115 29.24C29.6257 28.0255 29.0876 26.8631 28.4155 25.7818ZM15.3628 44.3627C9.57633 44.3627 4.86883 39.6551 4.86883 33.8687C4.86883 28.0824 9.57644 23.3748 15.3628 23.3748C20.9334 23.3748 25.6021 27.86 25.846 33.4058L19.9091 39.3426C19.45 39.8017 19.2592 40.4543 19.3988 41.0884C19.5383 41.7224 19.9854 42.2346 20.5948 42.4586L21.1063 42.6466C19.407 43.7606 17.4124 44.3627 15.3628 44.3627Z" fill="black"/>
<path d="M39.7891 43.2141C39.8912 43.2141 39.9953 43.1946 40.0957 43.1535C40.5106 42.9839 40.7094 42.5101 40.5398 42.0953L35.8675 30.6651C35.6981 30.2504 35.2244 30.0512 34.8093 30.2211C34.3945 30.3906 34.1956 30.8644 34.3653 31.2793L39.0375 42.7094C39.1661 43.0237 39.4691 43.2141 39.7891 43.2141Z" fill="black"/>
<path d="M30.1414 34.049C29.5729 34.6176 29.2949 35.3983 29.3585 36.2474C29.4188 37.0506 29.7828 37.8239 30.3834 38.4245C30.9841 39.0252 31.7572 39.3892 32.5606 39.4493C32.6402 39.4553 32.7193 39.4583 32.7976 39.4583C33.5543 39.4583 34.2437 39.1816 34.7589 38.6664C35.3275 38.0979 35.6055 37.3172 35.5418 36.4681C35.4816 35.6647 35.1176 34.8915 34.517 34.2909C33.9163 33.6902 33.1431 33.3262 32.3398 33.266C31.49 33.202 30.7099 33.4805 30.1414 34.049ZM33.3694 35.4385C33.6955 35.7647 33.8923 36.1734 33.9235 36.5895C33.9513 36.9597 33.8404 37.2898 33.6113 37.519C33.3822 37.748 33.0518 37.8585 32.6819 37.8311C32.2658 37.7999 31.8571 37.6032 31.5309 37.277C31.2049 36.9509 31.008 36.5421 30.9769 36.1262C30.9491 35.7559 31.06 35.4258 31.2891 35.1967C31.4951 34.9907 31.7826 34.8804 32.1078 34.8804C32.1442 34.8804 32.1812 34.8818 32.2185 34.8845C32.6345 34.9156 33.0433 35.1124 33.3694 35.4385C33.3693 35.4385 33.3693 35.4385 33.3694 35.4385Z" fill="black"/>
<path d="M42.8645 40.3997C43.6213 40.3997 44.3107 40.1229 44.8258 39.6078C45.9654 38.4682 45.8569 36.5054 44.584 35.2322C44.584 35.2322 44.584 35.2322 44.5839 35.2322C43.311 33.9592 41.3481 33.8508 40.2084 34.9903C39.0689 36.1299 39.1774 38.0927 40.4504 39.3657C41.0511 39.9664 41.8242 40.3304 42.6276 40.3906C42.7073 40.3967 42.7863 40.3997 42.8645 40.3997ZM41.3561 36.138C41.571 35.9231 41.8625 35.8188 42.176 35.8188C42.6016 35.8188 43.0676 36.0112 43.4363 36.3799C44.0766 37.0202 44.1851 37.9535 43.6782 38.4603C43.4491 38.6893 43.1189 38.8002 42.7489 38.7725C42.3328 38.7413 41.924 38.5446 41.5979 38.2184C40.9578 37.578 40.8493 36.6448 41.3561 36.138Z" fill="black"/>
</g>
<defs>
<clipPath id="clip0_1517_13290">
<rect width="56" height="56" fill="white"/>
</clipPath>
</defs>
</svg>
