<svg width="56" height="56" viewBox="0 0 56 56" fill="none" xmlns="http://www.w3.org/2000/svg">
<path fill-rule="evenodd" clip-rule="evenodd" d="M56 20.07C56 19.067 55.499 18.131 54.664 17.574C49.995 14.462 28.555 0.168 28.555 0.168C28.219 -0.056 27.781 -0.056 27.445 0.168C27.445 0.168 6.005 14.462 1.336 17.574C0.501 18.131 0 19.067 0 20.07V53C0 54.657 1.343 56 3 56H53C54.657 56 56 54.657 56 53V20.07ZM50 54H53C53.552 54 54 53.552 54 53V20.07C54 19.736 53.833 19.424 53.555 19.238L28 2.202L2.445 19.238C2.167 19.424 2 19.736 2 20.07V53C2 53.552 2.448 54 3 54H6V24C6 22.343 7.343 21 9 21H47C48.657 21 50 22.343 50 24V54ZM44.829 54H48V24C48 23.448 47.552 23 47 23H9C8.448 23 8 23.448 8 24V54H11.171C11.06 53.687 11 53.351 11 53V43C11 42.232 11.289 41.531 11.764 41C11.289 40.469 11 39.768 11 39V29C11 27.343 12.343 26 14 26H24C25.657 26 27 27.343 27 29V39C27 39.768 26.711 40.469 26.236 41C26.711 41.531 27 42.232 27 43V53C27 53.351 26.94 53.687 26.829 54H29.171C29.06 53.687 29 53.351 29 53V43C29 42.232 29.289 41.531 29.764 41C29.289 40.469 29 39.768 29 39V29C29 27.343 30.343 26 32 26H42C43.657 26 45 27.343 45 29V39C45 39.768 44.711 40.469 44.236 41C44.711 41.531 45 42.232 45 43V53C45 53.351 44.94 53.687 44.829 54ZM24 54C24.552 54 25 53.552 25 53V43C25 42.448 24.552 42 24 42H14C13.448 42 13 42.448 13 43V53C13 53.552 13.448 54 14 54H24ZM42 54C42.552 54 43 53.552 43 53V43C43 42.448 42.552 42 42 42H32C31.448 42 31 42.448 31 43V53C31 53.552 31.448 54 32 54H42ZM39 52H41C41.552 52 42 51.552 42 51C42 50.448 41.552 50 41 50H39C38.448 50 38 50.448 38 51C38 51.552 38.448 52 39 52ZM21 52H23C23.552 52 24 51.552 24 51C24 50.448 23.552 50 23 50H21C20.448 50 20 50.448 20 51C20 51.552 20.448 52 21 52ZM39 49H41C41.552 49 42 48.552 42 48C42 47.448 41.552 47 41 47H39C38.448 47 38 47.448 38 48C38 48.552 38.448 49 39 49ZM21 49H23C23.552 49 24 48.552 24 48C24 47.448 23.552 47 23 47H21C20.448 47 20 47.448 20 48C20 48.552 20.448 49 21 49ZM43 29C43 28.448 42.552 28 42 28H32C31.448 28 31 28.448 31 29V39C31 39.552 31.448 40 32 40H42C42.552 40 43 39.552 43 39V29ZM25 29C25 28.448 24.552 28 24 28H14C13.448 28 13 28.448 13 29V39C13 39.552 13.448 40 14 40H24C24.552 40 25 39.552 25 39V29ZM39 38H41C41.552 38 42 37.552 42 37C42 36.448 41.552 36 41 36H39C38.448 36 38 36.448 38 37C38 37.552 38.448 38 39 38ZM21 38H23C23.552 38 24 37.552 24 37C24 36.448 23.552 36 23 36H21C20.448 36 20 36.448 20 37C20 37.552 20.448 38 21 38ZM21 35H23C23.552 35 24 34.552 24 34C24 33.448 23.552 33 23 33H21C20.448 33 20 33.448 20 34C20 34.552 20.448 35 21 35ZM39 35H41C41.552 35 42 34.552 42 34C42 33.448 41.552 33 41 33H39C38.448 33 38 33.448 38 34C38 34.552 38.448 35 39 35ZM35 12C35 11.666 34.833 11.353 34.555 11.168L28.555 7.168C28.219 6.944 27.781 6.944 27.445 7.168L21.445 11.168C21.167 11.353 21 11.666 21 12V16C21 16.552 21.448 17 22 17H34C34.552 17 35 16.552 35 16V12ZM23 12.535V15H33V12.535L28 9.202L23 12.535Z" fill="black"/>
</svg>
