<svg width="56" height="56" viewBox="0 0 56 56" fill="none" xmlns="http://www.w3.org/2000/svg">
<path d="M27.4598 11.4632H25.8581V0.753184C25.8581 0.753184 25.8581 0.753184 25.8581 0.7525V0.700684C25.8581 0.313633 25.5452 0.000683594 25.1581 0.000683594C24.8817 0.000683594 24.6437 0.160918 24.5295 0.39334L23.2758 1.65895L21.892 0.261133C21.7604 0.128105 21.582 0.0531836 21.3944 0.0531836C21.2075 0.0531836 21.0289 0.127422 20.8974 0.260449L19.5122 1.65908L18.1261 0.260449C17.8636 -0.00478517 17.3954 -0.00478517 17.1314 0.260449L15.7468 1.65908L14.3628 0.261133C14.2312 0.128105 14.0527 0.0531836 13.8652 0.0531836C13.6783 0.0531836 13.4997 0.127422 13.3682 0.260449L11.9828 1.65908L10.5996 0.261133C10.468 0.128105 10.2896 0.0531836 10.102 0.0531836C9.91508 0.0531836 9.73652 0.127422 9.60432 0.260449L8.22031 1.65826L6.96947 0.39334C6.856 0.160234 6.6166 0 6.34084 0C5.95379 0 5.64084 0.312949 5.64084 0.7V11.4625H4.03918C1.86002 11.4625 0.0869141 13.2356 0.0869141 15.4146V52.0477C0.0869141 54.2269 1.85934 56 4.03918 56H27.4598C29.6389 56 31.4121 54.2276 31.4121 52.0477V15.4153C31.4121 13.2363 29.6389 11.4632 27.4598 11.4632ZM7.04084 2.45561L7.72266 3.14439C7.85432 3.27674 8.03273 3.35234 8.22031 3.35234C8.40721 3.35234 8.58576 3.27811 8.71797 3.14508L10.1027 1.74727L11.4858 3.14453C11.6175 3.27756 11.7959 3.35248 11.9835 3.35248C12.1704 3.35248 12.3489 3.27824 12.4805 3.14521L13.8658 1.74658L15.2497 3.14453C15.3814 3.27756 15.5605 3.35248 15.7474 3.35248C15.9343 3.35248 16.1128 3.27824 16.245 3.14521L17.6296 1.74658L19.0156 3.14521C19.2781 3.41045 19.7471 3.41045 20.0096 3.14521L21.3948 1.74658L22.7787 3.14453C22.9103 3.27756 23.0894 3.35248 23.2763 3.35248C23.4632 3.35248 23.6418 3.27824 23.7733 3.14521L24.4587 2.45355V14.6125H7.04084V2.45561ZM30.0121 52.0479C30.0121 53.4548 28.8669 54.6 27.4598 54.6H4.03918C2.63221 54.6 1.48691 53.4548 1.48691 52.0479V15.4154C1.48691 14.0078 2.63207 12.8632 4.03918 12.8632H5.64084V15.3132C5.64084 15.7002 5.95379 16.0132 6.34084 16.0132H25.1583V16.0125C25.5453 16.0125 25.8583 15.6996 25.8583 15.3125V12.8625H27.4599C28.8676 12.8625 30.0122 14.0077 30.0122 15.4146V52.0479H30.0121Z" fill="black"/>
<path d="M16.4565 6.02759H9.5125C9.12545 6.02759 8.8125 6.34054 8.8125 6.72759C8.8125 7.11464 9.12545 7.42759 9.5125 7.42759H16.4565C16.8435 7.42759 17.1565 7.11464 17.1565 6.72759C17.1565 6.34054 16.8435 6.02759 16.4565 6.02759Z" fill="black"/>
<path d="M21.9868 6.02759H18.8865C18.4995 6.02759 18.1865 6.34054 18.1865 6.72759C18.1865 7.11464 18.4995 7.42759 18.8865 7.42759H21.9868C22.3738 7.42759 22.6868 7.11464 22.6868 6.72759C22.6868 6.34054 22.3738 6.02759 21.9868 6.02759Z" fill="black"/>
<path d="M16.4565 9.71252H9.5125C9.12545 9.71252 8.8125 10.0255 8.8125 10.4125C8.8125 10.7996 9.12545 11.1125 9.5125 11.1125H16.4565C16.8435 11.1125 17.1565 10.7996 17.1565 10.4125C17.1565 10.0255 16.8435 9.71252 16.4565 9.71252Z" fill="black"/>
<path d="M21.9868 9.71252H18.8865C18.4995 9.71252 18.1865 10.0255 18.1865 10.4125C18.1865 10.7996 18.4995 11.1125 18.8865 11.1125H21.9868C22.3738 11.1125 22.6868 10.7996 22.6868 10.4125C22.6868 10.0255 22.3738 9.71252 21.9868 9.71252Z" fill="black"/>
<path d="M24.234 19.3381H7.26389C6.36865 19.3375 5.64062 20.0655 5.64062 20.9614V27.8647C5.64062 28.7593 6.36865 29.4873 7.26389 29.4873H24.234C25.1292 29.4873 25.8572 28.7593 25.8572 27.8647V20.9614C25.8574 20.0662 25.1293 19.3381 24.234 19.3381ZM24.4574 27.8649C24.4574 27.9881 24.3566 28.0875 24.2341 28.0875H7.26389C7.1407 28.0875 7.04063 27.9874 7.04063 27.8649V20.9615C7.04063 20.8383 7.14139 20.7383 7.26389 20.7383H24.234C24.3571 20.7383 24.4572 20.839 24.4572 20.9615V27.8649H24.4574Z" fill="black"/>
<path d="M25.158 32.2875H6.34062C5.95357 32.2875 5.64062 32.6004 5.64062 32.9875V49.546C5.64062 49.9331 5.95357 50.246 6.34062 50.246H25.158C25.5451 50.246 25.858 49.9331 25.858 49.546V32.9875C25.858 32.6011 25.5444 32.2875 25.158 32.2875ZM13.3868 33.6875H18.1861V37.7125H13.3868V33.6875ZM11.9868 48.8467H7.04063V44.8217H11.9868V48.8467ZM11.9868 43.421H7.04063V39.1125H11.9868V43.421ZM11.9868 37.7125H7.04063V33.6875H11.9868V37.7125ZM13.3868 39.1132H18.1861V43.4217H13.3868V39.1132ZM18.1868 48.8467H13.3875V44.8217H18.1868V48.8467ZM24.458 48.8467H19.5868V44.8217H24.458V48.8467ZM24.458 43.421H19.5868V39.1125H24.458V43.421ZM24.458 37.7125H19.5868V33.6875H24.458V37.7125Z" fill="black"/>
<path d="M52.2712 22.4847H37.1694C35.1611 22.4847 33.5273 24.1185 33.5273 26.1268V52.3579C33.5273 54.3662 35.1611 56 37.1694 56H52.2712C54.2795 56 55.9133 54.3662 55.9133 52.3579V26.1268C55.9133 24.1185 54.2795 22.4847 52.2712 22.4847ZM37.3752 54.6007H37.1694C35.9325 54.6 34.9273 53.5948 34.9273 52.3579V26.1268C34.9273 24.8899 35.9332 23.8847 37.1694 23.8847H37.3752V54.6007ZM41.3658 54.6H38.7752V23.8839H41.3658V54.6ZM54.5133 52.3579C54.5133 53.5948 53.5074 54.6 52.2712 54.6H42.766V23.8839H52.2712C53.5081 23.8839 54.5133 24.8898 54.5133 26.1267V52.3579Z" fill="black"/>
<path d="M48.7039 48.762C48.3169 48.762 48.0039 49.0749 48.0039 49.462V51.2764C48.0039 51.6634 48.3169 51.9764 48.7039 51.9764C49.091 51.9764 49.4039 51.6634 49.4039 51.2764V49.462C49.4039 49.0756 49.0911 48.762 48.7039 48.762Z" fill="black"/>
<path d="M48.7039 43.8522C48.3169 43.8522 48.0039 44.1651 48.0039 44.5522V46.3673C48.0039 46.7543 48.3169 47.0672 48.7039 47.0672C49.091 47.0672 49.4039 46.7543 49.4039 46.3673V44.5522C49.4039 44.1651 49.0911 43.8522 48.7039 43.8522Z" fill="black"/>
<path d="M48.7039 38.9418C48.3169 38.9418 48.0039 39.2547 48.0039 39.6418V41.4568C48.0039 41.8439 48.3169 42.1568 48.7039 42.1568C49.091 42.1568 49.4039 41.8439 49.4039 41.4568V39.6418C49.4039 39.2546 49.0911 38.9418 48.7039 38.9418Z" fill="black"/>
<path d="M52.369 30.0636C52.369 28.0427 50.7247 26.3998 48.7045 26.3998C46.6844 26.3998 45.04 28.0434 45.04 30.0636C45.04 30.5921 45.1576 31.0918 45.36 31.5462C45.1576 32.0005 45.04 32.5003 45.04 33.0287C45.04 35.0496 46.6844 36.6932 48.7045 36.6932C50.7247 36.6932 52.369 35.0489 52.369 33.0287C52.369 32.5002 52.2514 32.0005 52.0491 31.5462C52.2513 31.0918 52.369 30.592 52.369 30.0636ZM48.7044 35.2932C47.4556 35.2932 46.4399 34.2775 46.4399 33.0287C46.4399 32.9951 46.4482 32.9643 46.4497 32.9307C47.0735 33.4228 47.8504 33.7287 48.7045 33.7287C49.5586 33.7287 50.3356 33.4229 50.9593 32.9307C50.9606 32.9637 50.9691 32.9951 50.9691 33.0287C50.9697 34.2775 49.9532 35.2932 48.7044 35.2932ZM47.0062 31.5462C47.422 31.0708 48.0247 30.7636 48.7044 30.7636C49.3841 30.7636 49.9875 31.0702 50.4026 31.5462C49.9868 32.0215 49.384 32.3287 48.7044 32.3287C48.0247 32.3287 47.4213 32.0214 47.0062 31.5462ZM50.9591 30.1616C50.3354 29.6695 49.5585 29.3636 48.7044 29.3636C47.8503 29.3636 47.0733 29.6694 46.4496 30.1616C46.4482 30.1287 46.4398 30.0972 46.4398 30.0636C46.4398 28.8155 47.4555 27.7998 48.7042 27.7998C49.953 27.7998 50.9687 28.8155 50.9687 30.0636C50.969 30.0972 50.9605 30.128 50.9591 30.1616Z" fill="black"/>
<path d="M40.0262 11.8125C39.6391 11.8125 39.3262 12.1254 39.3262 12.5125V19.5664C39.3262 19.9534 39.6391 20.2664 40.0262 20.2664C40.4132 20.2664 40.7262 19.9534 40.7262 19.5664V12.5125C40.7262 12.1261 40.4132 11.8125 40.0262 11.8125Z" fill="black"/>
<path d="M40.0262 0C39.6391 0 39.3262 0.312949 39.3262 0.7V9.625C39.3262 10.012 39.6391 10.325 40.0262 10.325C40.4132 10.325 40.7262 10.012 40.7262 9.625V0.7C40.7262 0.312949 40.4132 0 40.0262 0Z" fill="black"/>
<path d="M44.7205 8.92493C44.3335 8.92493 44.0205 9.23788 44.0205 9.62493V19.5663C44.0205 19.9533 44.3335 20.2663 44.7205 20.2663C45.1076 20.2663 45.4205 19.9533 45.4205 19.5663V9.62493C45.4205 9.23856 45.1077 8.92493 44.7205 8.92493Z" fill="black"/>
<path d="M44.7205 0C44.3335 0 44.0205 0.312949 44.0205 0.7V6.55061C44.0205 6.93766 44.3335 7.25061 44.7205 7.25061C45.1076 7.25061 45.4205 6.93766 45.4205 6.55061V0.7C45.4205 0.312949 45.1077 0 44.7205 0Z" fill="black"/>
<path d="M49.4148 0C49.0278 0 48.7148 0.313633 48.7148 0.7V19.5664C48.7148 19.9534 49.0278 20.2664 49.4148 20.2664C49.8019 20.2664 50.1148 19.9534 50.1148 19.5664V0.7C50.1148 0.312949 49.8019 0 49.4148 0Z" fill="black"/>
</svg>
