<svg width="56" height="56" viewBox="0 0 56 56" fill="none" xmlns="http://www.w3.org/2000/svg">
<path d="M49.875 36.2206V35.875H52.5C53.9473 35.875 55.125 34.6973 55.125 33.25V3.5C55.125 2.05275 53.9473 0.875 52.5 0.875H7C5.55275 0.875 4.375 2.05275 4.375 3.5V23.4561L1.44288 30.7869C1.06575 31.7284 0.875 32.7206 0.875 33.7356C0.875 35.3089 1.33612 36.8323 2.2085 38.1404L6.03487 43.8795L2.86913 53.375H0.875V55.125H55.125V53.375H48.9396L48.1425 42.2179C49.273 40.4171 49.875 38.3521 49.875 36.2206ZM33.6875 41.125L33.2176 40.4985C32.0679 38.9655 31.3171 37.1516 31.0459 35.2529C30.7519 33.1931 30.2103 31.1675 29.4376 29.2346L28.9187 27.9361C28.889 27.867 28.875 27.7935 28.875 27.6658C28.875 27.3674 29.1174 27.125 29.4158 27.125C30.7011 27.125 31.787 28.0455 31.9987 29.3125L32.2551 30.8525C32.4021 31.7354 33.1581 32.375 34.0532 32.375C35.0578 32.375 35.875 31.5569 35.875 30.5524V19.25C35.875 18.7679 36.2679 18.375 36.75 18.375C37.2321 18.375 37.625 18.7679 37.625 19.25V30.625H39.375V26.25C39.375 25.7679 39.7679 25.375 40.25 25.375C40.7321 25.375 41.125 25.7679 41.125 26.25V30.625H42.875V26.25C42.875 25.7679 43.2679 25.375 43.75 25.375C44.2321 25.375 44.625 25.7679 44.625 26.25V30.625H46.375V28C46.375 27.5179 46.7679 27.125 47.25 27.125C47.7321 27.125 48.125 27.5179 48.125 28V36.2206C48.125 37.9584 47.6516 39.6427 46.7617 41.125H33.6875ZM16.625 43.8918L18.0408 39.6454C18.263 38.9795 18.375 38.2856 18.375 37.5839C18.375 37.0011 18.2875 36.4289 18.137 35.875H29.379C29.7334 37.9269 30.5681 39.8825 31.8176 41.5485L32.354 42.2634L31.5604 53.375H16.625V43.8918ZM46.375 25.536C46.3418 25.5483 46.3059 25.5544 46.2735 25.5675C45.9716 24.4519 44.9601 23.625 43.75 23.625C43.0754 23.625 42.4655 23.8884 42 24.3075C41.5345 23.8875 40.9246 23.625 40.25 23.625C39.942 23.625 39.6497 23.688 39.375 23.786V19.25C39.375 18.1108 38.6409 17.1483 37.625 16.786V12.25C37.625 11.7679 38.0179 11.375 38.5 11.375C38.9821 11.375 39.375 11.7679 39.375 12.25V15.75C39.375 17.1973 40.5527 18.375 42 18.375C43.4473 18.375 44.625 17.1973 44.625 15.75V13.125H42.875V15.75C42.875 16.2321 42.4821 16.625 42 16.625C41.5179 16.625 41.125 16.2321 41.125 15.75V12.25C41.125 10.8027 39.9473 9.625 38.5 9.625C37.8254 9.625 37.2155 9.88837 36.75 10.3075C36.2845 9.8875 35.6746 9.625 35 9.625C34.6544 9.625 34.3262 9.69588 34.0235 9.8175C33.7216 8.70188 32.7101 7.875 31.5 7.875C30.0527 7.875 28.875 9.05275 28.875 10.5V20.125H30.625V10.5C30.625 10.0179 31.0179 9.625 31.5 9.625C31.9821 9.625 32.375 10.0179 32.375 10.5V14.875H34.125V12.25C34.125 11.7679 34.5179 11.375 35 11.375C35.4821 11.375 35.875 11.7679 35.875 12.25V16.786C34.8591 17.1483 34.125 18.1108 34.125 19.25V30.5524C34.125 30.6276 33.992 30.6381 33.9806 30.5655L33.7243 29.0255C33.3725 26.9097 31.5604 25.375 29.4158 25.375C28.1523 25.375 27.125 26.4023 27.125 27.7174C27.125 28.0175 27.181 28.3106 27.2921 28.5871L27.811 29.8839C27.909 30.128 27.9921 30.3774 28.0823 30.625H15.0518L13.2379 27.9046C13.2055 27.8556 13.1617 27.818 13.125 27.7734V6.125H46.375V25.536ZM28.6475 32.375C28.8094 32.9534 28.9546 33.5361 29.0736 34.125H17.3687C17.3364 34.0734 17.3136 34.0182 17.2795 33.9675L16.2181 32.375H28.6475ZM6.125 3.5C6.125 3.01787 6.51788 2.625 7 2.625H52.5C52.9821 2.625 53.375 3.01787 53.375 3.5V33.25C53.375 33.733 52.9821 34.125 52.5 34.125H49.875V28C49.875 26.8608 49.1409 25.8983 48.125 25.536V4.375H11.375V27.139C9.43425 27.2143 7.875 28.8059 7.875 30.7659C7.875 31.3985 8.04038 32.0232 8.3545 32.571L9.24262 34.125H7C6.51788 34.125 6.125 33.733 6.125 33.25V3.5ZM2.625 33.7356C2.625 32.9446 2.77375 32.1711 3.06775 31.4361L4.375 28.1689V33.25C4.375 34.6973 5.55275 35.875 7 35.875H10.2428L11.4905 38.059L13.0095 37.191L9.87437 31.7039C9.71163 31.4178 9.625 31.094 9.625 30.765C9.625 29.7229 10.4729 28.875 11.5159 28.875H11.7819L15.8244 34.9388C16.3485 35.7245 16.625 36.6389 16.625 37.5839C16.625 38.0975 16.5427 38.605 16.38 39.0924L15.1191 42.875H7.46812L3.6645 37.1691C2.98463 36.1489 2.625 34.9624 2.625 33.7356ZM7.63087 44.625H14.875V53.375H4.7145L7.63087 44.625ZM33.3148 53.375L34.0646 42.875H46.4354L47.1852 53.375H33.3148Z" fill="black"/>
<path d="M7.875 14.875H9.625V21.875H7.875V14.875Z" fill="black"/>
<path d="M49.875 14.875H51.625V21.875H49.875V14.875Z" fill="black"/>
<path d="M27.125 7.875H14.875V13.125H27.125V7.875ZM25.375 11.375H16.625V9.625H25.375V11.375Z" fill="black"/>
<path d="M14.875 14.875H21.875V16.625H14.875V14.875Z" fill="black"/>
<path d="M23.625 14.875H27.125V16.625H23.625V14.875Z" fill="black"/>
<path d="M14.875 18.375H27.125V20.125H14.875V18.375Z" fill="black"/>
<path d="M14.875 21.875H27.125V23.625H14.875V21.875Z" fill="black"/>
<path d="M14.875 25.375H16.625V27.125H14.875V25.375Z" fill="black"/>
<path d="M18.375 25.375H20.125V27.125H18.375V25.375Z" fill="black"/>
<path d="M21.875 25.375H23.625V27.125H21.875V25.375Z" fill="black"/>
</svg>
