<svg width="56" height="56" viewBox="0 0 56 56" fill="none" xmlns="http://www.w3.org/2000/svg">
<path d="M48.9999 24.4999H45.7974C46.4099 23.708 47.1099 22.8987 47.9044 22.0499C49.735 20.1098 50.7532 17.5423 50.7499 14.8749C50.7499 14.6492 50.7377 14.4269 50.7228 14.2055C50.7562 14.0401 50.7416 13.8686 50.6808 13.7112C50.3957 11.1366 49.1686 8.75845 47.2355 7.03425C45.3025 5.31005 42.8 4.36165 40.2098 4.37154C37.6195 4.38142 35.1244 5.34889 33.2045 7.08778C31.2847 8.82668 30.0757 11.2141 29.8103 13.7908C29.7832 13.8967 29.7743 14.0065 29.7841 14.1154C29.7657 14.3665 29.7499 14.6194 29.7499 14.8749C29.7466 17.5423 30.7648 20.1098 32.5954 22.0499C33.3908 22.896 34.0829 23.7054 34.7033 24.4999H18.6374C19.7365 22.6641 21.0436 20.9612 22.5329 19.4249C24.3623 17.4842 25.3792 14.9169 25.3749 12.2499C25.3749 12.0242 25.3627 11.8019 25.3478 11.5805C25.3812 11.4151 25.3666 11.2436 25.3058 11.0862C25.0207 8.51162 23.7936 6.13345 21.8605 4.40925C19.9275 2.68505 17.425 1.73665 14.8348 1.74654C12.2445 1.75642 9.7494 2.72389 7.82955 4.46278C5.9097 6.20168 4.70074 8.58914 4.43531 11.1658C4.40819 11.2717 4.39931 11.3815 4.40906 11.4904C4.39069 11.7415 4.37494 11.9944 4.37494 12.2499C4.37163 14.9173 5.38984 17.4848 7.22044 19.4249C8.7093 20.9607 10.0153 22.6637 11.1124 24.4999H6.99994C6.79124 24.4999 6.58942 24.5745 6.43089 24.7103C6.27236 24.846 6.16758 25.034 6.13544 25.2402L1.76044 53.2402C1.74099 53.365 1.74878 53.4925 1.78329 53.614C1.81779 53.7355 1.87819 53.848 1.96033 53.944C2.04246 54.0399 2.1444 54.1169 2.25912 54.1698C2.37384 54.2226 2.49864 54.2499 2.62494 54.2499H53.3749C53.5012 54.2499 53.626 54.2226 53.7408 54.1698C53.8555 54.1169 53.9574 54.0399 54.0395 53.944C54.1217 53.848 54.1821 53.7355 54.2166 53.614C54.2511 53.4925 54.2589 53.365 54.2394 53.2402L49.8644 25.2402C49.8323 25.034 49.7275 24.846 49.569 24.7103C49.4105 24.5745 49.2086 24.4999 48.9999 24.4999ZM31.4999 14.8749C31.4999 14.6299 31.5183 14.3875 31.5376 14.1478C31.5384 14.1315 31.5384 14.1151 31.5376 14.0988V14.0787C31.735 11.9054 32.738 9.88441 34.3494 8.41279C35.9608 6.94116 38.0642 6.12522 40.2464 6.12522C42.4287 6.12522 44.5321 6.94116 46.1435 8.41279C47.7549 9.88441 48.7578 11.9054 48.9553 14.0787V14.0874C48.9553 14.1067 48.9553 14.1277 48.9553 14.1478C48.9746 14.3875 48.9929 14.6299 48.9929 14.8749C48.9958 17.0975 48.1476 19.2369 46.6226 20.8538C44.817 22.7 43.2755 24.7871 42.0419 27.0558L40.2499 30.4893L38.4509 27.0567C37.2181 24.7873 35.6765 22.6998 33.8703 20.8538C32.3453 19.2369 31.4971 17.0975 31.4999 14.8749ZM36.9013 27.8687L39.4747 32.7809C39.5488 32.9225 39.6602 33.041 39.7968 33.1237C39.9335 33.2065 40.0902 33.2502 40.2499 33.2502C40.4097 33.2502 40.5664 33.2065 40.703 33.1237C40.8397 33.041 40.9511 32.9225 41.0252 32.7809L43.5986 27.8678C43.8847 27.3218 44.2058 26.7802 44.5611 26.2359C44.5821 26.2417 44.6034 26.2464 44.6249 26.2499H48.2518L52.2943 52.1263L27.0252 39.7949L32.1063 26.2499H35.8749C35.8976 26.2465 35.9201 26.2418 35.9423 26.2359C36.2941 26.7802 36.6152 27.3218 36.9013 27.8687ZM6.12494 12.2499C6.12494 12.0049 6.14331 11.7625 6.16256 11.5228C6.16344 11.5065 6.16344 11.4901 6.16256 11.4738V11.4537C6.36003 9.28036 7.36297 7.25941 8.97436 5.78779C10.5858 4.31616 12.6892 3.50022 14.8714 3.50022C17.0537 3.50022 19.1571 4.31616 20.7685 5.78779C22.3799 7.25941 23.3828 9.28036 23.5803 11.4537V11.4624C23.5803 11.4817 23.5803 11.5027 23.5803 11.5228C23.5996 11.7625 23.6179 12.0049 23.6179 12.2499C23.6208 14.4725 22.7726 16.6119 21.2476 18.2288C19.442 20.075 17.9005 22.1621 16.6669 24.4308L14.8749 27.8643L13.0759 24.4317C11.8431 22.1623 10.3015 20.0748 8.49531 18.2288C6.97027 16.6119 6.1221 14.4725 6.12494 12.2499ZM12.0539 26.2499L14.0997 30.1559C14.1738 30.2975 14.2852 30.416 14.4218 30.4987C14.5585 30.5815 14.7152 30.6252 14.8749 30.6252C15.0347 30.6252 15.1914 30.5815 15.328 30.4987C15.4647 30.416 15.5761 30.2975 15.6502 30.1559L17.6959 26.2499H21.4873L18.0503 35.419L7.14606 30.0999L7.74806 26.2499H12.0539ZM5.76006 38.9768L15.0184 43.4962L11.6436 52.4999H3.64694L5.76006 38.9768ZM13.5117 52.4999L16.9364 43.3658C17.0125 43.1618 17.0098 42.9369 16.9289 42.7348C16.8481 42.5327 16.6947 42.368 16.4989 42.2729L6.04269 37.1673L6.86344 31.9112L18.1509 37.414C18.2605 37.4675 18.3801 37.4975 18.502 37.5021C18.6238 37.5066 18.7453 37.4856 18.8586 37.4405C18.9719 37.3953 19.0745 37.327 19.1598 37.2399C19.2451 37.1528 19.3113 37.0487 19.3541 36.9345L23.3563 26.2499H30.2373L25.1063 39.9253C25.03 40.1294 25.0325 40.3545 25.1134 40.5568C25.1943 40.7591 25.3478 40.9239 25.5438 41.019L49.0708 52.4999H37.4762L23.9032 45.8779C23.7936 45.8244 23.6741 45.7944 23.5523 45.7898C23.4305 45.7852 23.309 45.8061 23.1958 45.8511C23.0825 45.8962 22.9799 45.9644 22.8945 46.0515C22.8092 46.1385 22.7429 46.2424 22.7001 46.3565L20.3944 52.4999H13.5117ZM33.4862 52.4999H22.2634L24.0012 47.872L33.4862 52.4999Z" fill="black"/>
<path d="M14.875 17.3748C14.9935 17.3748 15.1108 17.3507 15.2197 17.3039C15.722 17.0887 20.125 15.1164 20.125 12.1248V11.8343C20.1252 11.226 19.9455 10.6313 19.6086 10.1249C19.2716 9.61845 18.7925 9.22296 18.2314 8.98814C17.6703 8.75332 17.0522 8.68964 16.455 8.80512C15.8578 8.92061 15.3081 9.21009 14.875 9.63717C14.4417 9.21051 13.892 8.9214 13.295 8.80616C12.6979 8.69091 12.0801 8.75467 11.5192 8.98942C10.9582 9.22418 10.4792 9.61946 10.1422 10.1256C9.80516 10.6318 9.62524 11.2262 9.625 11.8343V12.1248C9.625 15.1147 14.028 17.0887 14.5303 17.3039C14.6392 17.3507 14.7565 17.3748 14.875 17.3748ZM11.375 12.1248V11.8343C11.3759 11.5711 11.4545 11.3141 11.601 11.0954C11.7475 10.8768 11.9554 10.7063 12.1984 10.6055C12.4415 10.5046 12.709 10.4778 12.9672 10.5284C13.2255 10.5791 13.463 10.7049 13.65 10.8902L14.252 11.4939C14.3333 11.5753 14.4298 11.6398 14.536 11.6838C14.6422 11.7279 14.7561 11.7505 14.8711 11.7505C14.9861 11.7505 15.0999 11.7279 15.2061 11.6838C15.3124 11.6398 15.4089 11.5753 15.4901 11.4939L16.093 10.891C16.2794 10.703 16.5175 10.5747 16.777 10.5224C17.0365 10.4701 17.3057 10.4962 17.5504 10.5973C17.795 10.6984 18.0041 10.87 18.1509 11.0903C18.2977 11.3106 18.3758 11.5696 18.375 11.8343V12.1248C18.375 13.5335 16.0615 14.9545 14.875 15.5373C13.6885 14.9545 11.375 13.5335 11.375 12.1248Z" fill="black"/>
<path d="M40.25 19.9998C40.3685 19.9998 40.4858 19.9757 40.5948 19.9289C41.097 19.7137 45.5 17.7414 45.5 14.7498V14.4593C45.5002 13.851 45.3205 13.2563 44.9836 12.7499C44.6466 12.2435 44.1675 11.848 43.6064 11.6131C43.0453 11.3783 42.4272 11.3146 41.83 11.4301C41.2328 11.5456 40.6831 11.8351 40.25 12.2622C39.8167 11.8355 39.267 11.5464 38.67 11.4312C38.0729 11.3159 37.4551 11.3797 36.8942 11.6144C36.3332 11.8492 35.8542 12.2445 35.5172 12.7506C35.1802 13.2568 35.0002 13.8512 35 14.4593V14.7498C35 17.7397 39.403 19.7137 39.9052 19.9289C40.0142 19.9757 40.1315 19.9998 40.25 19.9998ZM36.75 14.7498V14.4593C36.7509 14.1961 36.8295 13.9391 36.976 13.7204C37.1225 13.5018 37.3304 13.3313 37.5734 13.2305C37.8165 13.1296 38.084 13.1028 38.3422 13.1534C38.6005 13.2041 38.838 13.3299 39.025 13.5152L39.627 14.1189C39.7083 14.2003 39.8048 14.2648 39.911 14.3088C40.0172 14.3529 40.1311 14.3755 40.2461 14.3755C40.361 14.3755 40.4749 14.3529 40.5811 14.3088C40.6874 14.2648 40.7839 14.2003 40.8651 14.1189L41.468 13.516C41.6544 13.328 41.8925 13.1997 42.152 13.1474C42.4115 13.0951 42.6807 13.1212 42.9254 13.2223C43.17 13.3234 43.3791 13.495 43.5259 13.7153C43.6727 13.9356 43.7508 14.1946 43.75 14.4593V14.7498C43.75 16.1585 41.4365 17.5795 40.25 18.1623C39.0635 17.5795 36.75 16.1585 36.75 14.7498Z" fill="black"/>
<path d="M35.875 38.4999C35.875 38.732 35.9672 38.9545 36.1313 39.1186C36.2954 39.2827 36.5179 39.3749 36.75 39.3749V41.9999C36.75 42.232 36.8422 42.4545 37.0063 42.6186C37.1704 42.7827 37.3929 42.8749 37.625 42.8749H42.875C43.1071 42.8749 43.3296 42.7827 43.4937 42.6186C43.6578 42.4545 43.75 42.232 43.75 41.9999V39.3749C43.9821 39.3749 44.2046 39.2827 44.3687 39.1186C44.5328 38.9545 44.625 38.732 44.625 38.4999V37.6249C44.6259 37.4616 44.581 37.3012 44.4955 37.162C44.41 37.0229 44.2872 36.9104 44.1411 36.8374L40.6411 35.0874C40.5197 35.0267 40.3858 34.9951 40.25 34.9951C40.1142 34.9951 39.9803 35.0267 39.8589 35.0874L36.3589 36.8374C36.2128 36.9104 36.09 37.0229 36.0045 37.162C35.919 37.3012 35.8741 37.4616 35.875 37.6249V38.4999ZM40.25 36.8532L42.273 37.8647C42.1867 37.9464 42.118 38.0449 42.0711 38.1542C42.0242 38.2634 42 38.381 42 38.4999V41.1249H38.5V38.4999C38.4999 38.381 38.4756 38.2633 38.4285 38.1541C38.3814 38.0448 38.3126 37.9464 38.2261 37.8647L40.25 36.8532Z" fill="black"/>
</svg>
