<svg width="56" height="56" viewBox="0 0 56 56" fill="none" xmlns="http://www.w3.org/2000/svg">
<path d="M19.25 20.125H13.125V14C13.125 13.7679 13.0328 13.5454 12.8687 13.3813C12.7046 13.2172 12.4821 13.125 12.25 13.125C10.6925 13.125 9.16993 13.5869 7.87489 14.4522C6.57985 15.3175 5.57049 16.5474 4.97445 17.9864C4.37841 19.4253 4.22246 21.0087 4.52632 22.5363C4.83018 24.0639 5.5802 25.4671 6.68154 26.5685C7.78288 27.6698 9.18607 28.4198 10.7137 28.7237C12.2413 29.0275 13.8247 28.8716 15.2636 28.2756C16.7026 27.6795 17.9325 26.6702 18.7978 25.3751C19.6631 24.0801 20.125 22.5575 20.125 21C20.125 20.7679 20.0328 20.5454 19.8687 20.3813C19.7046 20.2172 19.4821 20.125 19.25 20.125ZM11.375 14.9371V20.6378L7.35 24.6628C6.71112 23.8135 6.30469 22.8124 6.17083 21.7582C6.03697 20.704 6.1803 19.6331 6.58667 18.6511C6.99305 17.6692 7.64842 16.8102 8.48813 16.1589C9.32784 15.5076 10.3229 15.0865 11.375 14.9371ZM12.25 27.125C10.929 27.1249 9.64399 26.695 8.589 25.9L12.614 21.875H18.3146C18.1023 23.3323 17.3727 24.6646 16.2593 25.6285C15.1458 26.5924 13.7227 27.1236 12.25 27.125Z" fill="black"/>
<path d="M15.75 18.375H22.75C22.9821 18.375 23.2046 18.2828 23.3687 18.1187C23.5328 17.9546 23.625 17.7321 23.625 17.5C23.6225 15.4122 22.792 13.4106 21.3157 11.9343C19.8394 10.458 17.8378 9.62755 15.75 9.625C15.5179 9.625 15.2954 9.71719 15.1313 9.88128C14.9672 10.0454 14.875 10.2679 14.875 10.5V17.5C14.875 17.7321 14.9672 17.9546 15.1313 18.1187C15.2954 18.2828 15.5179 18.375 15.75 18.375ZM16.625 11.4371C17.9329 11.6283 19.1442 12.2365 20.0789 13.1711C21.0135 14.1058 21.6217 15.3171 21.8129 16.625H16.625V11.4371Z" fill="black"/>
<path d="M34.125 22.75C31.8752 22.75 29.676 23.4171 27.8054 24.667C25.9348 25.9169 24.4768 27.6935 23.6159 29.772C22.7549 31.8505 22.5297 34.1376 22.9686 36.3441C23.4075 38.5507 24.4908 40.5775 26.0817 42.1683C27.6725 43.7591 29.6993 44.8425 31.9058 45.2814C34.1124 45.7203 36.3995 45.4951 38.478 44.6341C40.5565 43.7732 42.3331 42.3152 43.583 40.4446C44.8329 38.574 45.5 36.3748 45.5 34.125C45.4965 31.1092 44.297 28.218 42.1645 26.0855C40.032 23.953 37.1408 22.7535 34.125 22.75ZM29.75 30.625V25.5622C30.3094 25.2757 30.8955 25.0448 31.5 24.8727V30.625H29.75ZM40.25 32.375V34.125H28V32.375H40.25ZM36.75 30.625V24.8727C37.3545 25.0448 37.9406 25.2757 38.5 25.5622V30.625H36.75ZM35 24.5446V30.625H33.25V24.5446C33.5387 24.5184 33.8292 24.5 34.125 24.5C34.4207 24.5 34.7112 24.5184 35 24.5446ZM28 26.7059V30.625H27.125C26.8929 30.625 26.6704 30.7172 26.5063 30.8813C26.3422 31.0454 26.25 31.2679 26.25 31.5V35C26.25 35.2321 26.3422 35.4546 26.5063 35.6187C26.6704 35.7828 26.8929 35.875 27.125 35.875H41.125C41.3571 35.875 41.5796 35.7828 41.7437 35.6187C41.9078 35.4546 42 35.2321 42 35V31.5C42 31.2679 41.9078 31.0454 41.7437 30.8813C41.5796 30.7172 41.3571 30.625 41.125 30.625H40.25V26.7059C41.8165 27.9923 42.9345 29.7424 43.4433 31.7045C43.9521 33.6666 43.8254 35.7395 43.0815 37.625H25.1685C24.4245 35.7395 24.2979 33.6666 24.8067 31.7045C25.3155 29.7424 26.4335 27.9923 28 26.7059ZM34.125 43.75C32.5241 43.7483 30.949 43.3473 29.5421 42.5834C28.1353 41.8195 26.9412 40.7167 26.068 39.375H42.182C41.3088 40.7167 40.1147 41.8195 38.7079 42.5834C37.301 43.3473 35.7259 43.7483 34.125 43.75Z" fill="black"/>
<path d="M53.9621 48.3499L50.1769 44.5646C50.3519 44.2351 50.4169 43.8583 50.3626 43.4891C50.3083 43.12 50.1375 42.7779 49.875 42.5127L47.6481 40.2859C48.7207 37.9544 49.1673 35.3837 48.944 32.8271C48.7208 30.2704 47.8354 27.8161 46.375 25.7057V3.5C46.375 2.80381 46.0984 2.13613 45.6062 1.64384C45.1139 1.15156 44.4462 0.875 43.75 0.875H3.5C2.80381 0.875 2.13613 1.15156 1.64384 1.64384C1.15156 2.13613 0.875 2.80381 0.875 3.5V36.75C0.875 37.4462 1.15156 38.1139 1.64384 38.6062C2.13613 39.0984 2.80381 39.375 3.5 39.375H20.2247C20.9383 41.2821 22.0372 43.0217 23.453 44.4851C24.8688 45.9486 26.571 47.1046 28.4534 47.8809C30.3358 48.6572 32.3581 49.0372 34.3939 48.9971C36.4297 48.9571 38.4354 48.4979 40.2859 47.6481L42.5127 49.875C42.7758 50.1409 43.1182 50.3142 43.4883 50.3686C43.8584 50.4231 44.2361 50.3558 44.5646 50.1769L48.3499 53.9621C49.0941 54.7064 50.1035 55.1245 51.156 55.1245C52.2085 55.1245 53.2179 54.7064 53.9621 53.9621C54.7064 53.2179 55.1245 52.2085 55.1245 51.156C55.1245 50.1035 54.7064 49.0941 53.9621 48.3499ZM3.5 2.625H43.75C43.9821 2.625 44.2046 2.71719 44.3687 2.88128C44.5328 3.04538 44.625 3.26794 44.625 3.5V6.125H2.625V3.5C2.625 3.26794 2.71719 3.04538 2.88128 2.88128C3.04538 2.71719 3.26794 2.625 3.5 2.625ZM3.5 37.625C3.26794 37.625 3.04538 37.5328 2.88128 37.3687C2.71719 37.2046 2.625 36.9821 2.625 36.75V7.875H44.625V23.5996C43.3587 22.3412 41.8769 21.3203 40.25 20.5852V10.5C40.25 10.2679 40.1578 10.0454 39.9937 9.88128C39.8296 9.71719 39.6071 9.625 39.375 9.625H35.875C35.6429 9.625 35.4204 9.71719 35.2563 9.88128C35.0922 10.0454 35 10.2679 35 10.5V19.2946C34.7086 19.2771 34.4207 19.25 34.125 19.25C33.8292 19.25 33.5414 19.2771 33.25 19.2946V15.75C33.25 15.5179 33.1578 15.2954 32.9937 15.1313C32.8296 14.9672 32.6071 14.875 32.375 14.875H28.875C28.6429 14.875 28.4204 14.9672 28.2563 15.1313C28.0922 15.2954 28 15.5179 28 15.75V20.5852C24.8355 21.9991 22.269 24.4806 20.7494 27.5956C19.2298 30.7106 18.8539 34.2608 19.6875 37.625H3.5ZM38.5 19.9089C37.9256 19.7357 37.3412 19.5977 36.75 19.4959V11.375H38.5V19.9089ZM31.5 19.4959C30.9088 19.5977 30.3244 19.7357 29.75 19.9089V16.625H31.5V19.4959ZM21 34.125C21 31.5291 21.7698 28.9915 23.212 26.8331C24.6542 24.6747 26.704 22.9925 29.1023 21.9991C31.5006 21.0057 34.1396 20.7458 36.6856 21.2522C39.2316 21.7586 41.5702 23.0087 43.4058 24.8442C45.2413 26.6798 46.4914 29.0184 46.9978 31.5644C47.5042 34.1104 47.2443 36.7494 46.2509 39.1477C45.2575 41.546 43.5753 43.5958 41.4169 45.038C39.2585 46.4802 36.7209 47.25 34.125 47.25C30.6452 47.2461 27.3091 45.862 24.8486 43.4014C22.388 40.9409 21.0039 37.6048 21 34.125ZM41.8967 46.7845C43.8852 45.5591 45.5591 43.8852 46.7845 41.8967L48.6377 43.75L43.75 48.6377L41.8967 46.7845ZM51.156 53.375C50.8645 53.3757 50.5758 53.3186 50.3065 53.207C50.0372 53.0954 49.7927 52.9316 49.5871 52.7249L45.8622 49L49 45.8622L52.7249 49.5871C53.0351 49.8975 53.2464 50.2928 53.332 50.7232C53.4176 51.1536 53.3736 51.5997 53.2057 52.0051C53.0378 52.4105 52.7534 52.7571 52.3886 53.0009C52.0238 53.2447 51.5948 53.3749 51.156 53.375Z" fill="black"/>
<path d="M15.75 30.625H5.25C5.01794 30.625 4.79538 30.7172 4.63128 30.8813C4.46719 31.0454 4.375 31.2679 4.375 31.5V35C4.375 35.2321 4.46719 35.4546 4.63128 35.6187C4.79538 35.7828 5.01794 35.875 5.25 35.875H15.75C15.9821 35.875 16.2046 35.7828 16.3687 35.6187C16.5328 35.4546 16.625 35.2321 16.625 35V31.5C16.625 31.2679 16.5328 31.0454 16.3687 30.8813C16.2046 30.7172 15.9821 30.625 15.75 30.625ZM14.875 34.125H6.125V32.375H14.875V34.125Z" fill="black"/>
</svg>
