<svg width="56" height="56" viewBox="0 0 56 56" fill="none" xmlns="http://www.w3.org/2000/svg">
<path d="M41.0215 0H14.9795C13.0824 0 11.5391 1.54332 11.5391 3.44045V31.7195C11.5391 32.1727 11.9064 32.54 12.3596 32.54C12.8127 32.54 13.1801 32.1727 13.1801 31.7195V8.80002H42.8211V47.1999H13.1801V35.5304C13.1801 35.0771 12.8127 34.7099 12.3596 34.7099C11.9064 34.7099 11.5391 35.0771 11.5391 35.5304V52.5594C11.5391 54.4566 13.0824 55.9999 14.9795 55.9999H41.0215C42.9186 55.9999 44.462 54.4566 44.462 52.5594V3.44045C44.462 1.54332 42.9186 0 41.0215 0V0ZM13.1801 7.159V3.44045C13.1801 2.44829 13.9874 1.64102 14.9795 1.64102H41.0215C42.0137 1.64102 42.8209 2.44829 42.8209 3.44045V7.159H13.1801ZM41.0215 54.359H14.9795C13.9874 54.359 13.1801 53.5517 13.1801 52.5595V48.841H42.8211V52.5595C42.8209 53.5517 42.0137 54.359 41.0215 54.359Z" fill="black"/>
<path d="M29.323 50.7795H26.6779C26.2248 50.7795 25.8574 51.1467 25.8574 51.6C25.8574 52.0532 26.2248 52.4205 26.6779 52.4205H29.323C29.7762 52.4205 30.1435 52.0532 30.1435 51.6C30.1435 51.1467 29.7762 50.7795 29.323 50.7795Z" fill="black"/>
<path d="M24.5411 5.488C25.142 5.488 25.6291 5.00089 25.6291 4.40001C25.6291 3.79912 25.142 3.31201 24.5411 3.31201C23.9402 3.31201 23.4531 3.79912 23.4531 4.40001C23.4531 5.00089 23.9402 5.488 24.5411 5.488Z" fill="black"/>
<path d="M32.5478 3.57965H28.0012C27.548 3.57965 27.1807 3.94691 27.1807 4.40016C27.1807 4.85341 27.548 5.22067 28.0012 5.22067H32.5478C33.0009 5.22067 33.3683 4.85341 33.3683 4.40016C33.3683 3.94691 33.0009 3.57965 32.5478 3.57965Z" fill="black"/>
<path d="M36.6107 12.2754V11.7741C36.6107 11.3208 36.2434 10.9536 35.7902 10.9536C35.3371 10.9536 34.9697 11.3208 34.9697 11.7741V12.2754C34.9697 12.7287 35.3371 13.096 35.7902 13.096C36.2434 13.096 36.6107 12.7287 36.6107 12.2754Z" fill="black"/>
<path d="M38.3088 13.096C38.7619 13.096 39.1293 12.7287 39.1293 12.2755V11.2726C39.1293 10.8193 38.7619 10.4521 38.3088 10.4521C37.8557 10.4521 37.4883 10.8193 37.4883 11.2726V12.2755C37.4883 12.7287 37.8557 13.096 38.3088 13.096Z" fill="black"/>
<path d="M41.6479 12.2755V10.7713C41.6479 10.318 41.2805 9.95074 40.8273 9.95074C40.3742 9.95074 40.0068 10.318 40.0068 10.7713V12.2755C40.0068 12.7288 40.3742 13.096 40.8273 13.096C41.2805 13.096 41.6479 12.7288 41.6479 12.2755Z" fill="black"/>
<path d="M19.4541 26.7158H25.3737C26.1879 26.7158 26.8503 26.0534 26.8503 25.2392V19.3196C26.8503 18.5056 26.1879 17.8431 25.3737 17.8431H19.4541C18.64 17.8431 17.9775 18.5056 17.9775 19.3196V25.2392C17.9776 26.0535 18.64 26.7158 19.4541 26.7158ZM19.6187 19.4842H25.2093V25.0748H19.6187V19.4842Z" fill="black"/>
<path d="M29.1514 19.3196V25.2392C29.1514 26.0534 29.8138 26.7158 30.628 26.7158H36.5475C37.3617 26.7158 38.0241 26.0534 38.0241 25.2392V23.8974C38.0241 23.4441 37.6568 23.0769 37.2036 23.0769C36.7505 23.0769 36.3831 23.4441 36.3831 23.8974V25.0748H30.7925V19.484H36.3831V20.123C36.3831 20.5763 36.7505 20.9436 37.2036 20.9436C37.6568 20.9436 38.0241 20.5763 38.0241 20.123V19.3195C38.0241 18.5054 37.3617 17.843 36.5475 17.843H30.628C29.8138 17.8431 29.1514 18.5054 29.1514 19.3196Z" fill="black"/>
<path d="M17.9775 36.6804C17.9775 37.4945 18.64 38.1569 19.4541 38.1569H25.3737C26.1879 38.1569 26.8503 37.4945 26.8503 36.6804V30.7608C26.8503 29.9467 26.1879 29.2842 25.3737 29.2842H19.4541C18.64 29.2842 17.9775 29.9467 17.9775 30.7608V36.6804ZM19.6186 30.9253H25.2092V36.516H19.6186V30.9253Z" fill="black"/>
<path d="M29.9719 34.5412H32.7672V37.3365C32.7672 37.7897 33.1346 38.157 33.5877 38.157C34.0408 38.157 34.4082 37.7897 34.4082 37.3365V34.5412H37.2035C37.6567 34.5412 38.024 34.1739 38.024 33.7207C38.024 33.2674 37.6567 32.9002 37.2035 32.9002H34.4082V30.1048C34.4082 29.6515 34.0408 29.2842 33.5877 29.2842C33.1346 29.2842 32.7672 29.6515 32.7672 30.1048V32.9002H29.9719C29.5187 32.9002 29.1514 33.2674 29.1514 33.7207C29.1514 34.1739 29.5187 34.5412 29.9719 34.5412Z" fill="black"/>
</svg>
