<svg width="56" height="56" viewBox="0 0 56 56" fill="none" xmlns="http://www.w3.org/2000/svg">
<path d="M53.4262 37.2625H53.3698V34.5758C53.3698 34.1228 53.0025 33.7555 52.5494 33.7555H42.0283C41.5753 33.7555 41.208 34.1228 41.208 34.5758V37.2625H27.9436V35.3962H35.8909C37.3101 35.3962 38.4647 34.2415 38.4647 32.8223V29.2588H41.1514C42.0872 29.2588 42.8485 28.4974 42.8485 27.5616V13.5334C42.8485 12.5976 42.0872 11.8363 41.1514 11.8363H38.4647V8.2728C38.4647 6.85355 37.31 5.69899 35.8909 5.69899H4.32731C2.90806 5.69899 1.7535 6.85366 1.7535 8.2728V32.8222C1.7535 34.2415 2.90817 35.3961 4.32731 35.3961H12.2747V37.2624H2.57381C1.15467 37.2625 0 38.4171 0 39.8363V46.8505C0 48.2697 1.15467 49.4243 2.57381 49.4243H2.63309C2.63178 49.443 2.63025 49.4617 2.63025 49.4807C2.63025 49.9337 2.99753 50.301 3.45056 50.301H5.20406C5.65709 50.301 6.02437 49.9337 6.02437 49.4807C6.02437 49.4617 6.02284 49.443 6.02153 49.4243H49.9784C49.977 49.443 49.9755 49.4617 49.9755 49.4807C49.9755 49.9337 50.3428 50.301 50.7958 50.301H52.5493C53.0024 50.301 53.3696 49.9337 53.3696 49.4807C53.3696 49.4617 53.3681 49.443 53.3668 49.4243H53.4261C54.8453 49.4243 55.9999 48.2696 55.9999 46.8505V39.8363C56 38.4171 54.8453 37.2625 53.4262 37.2625ZM54.3594 39.8363V44.2766H40.2182V38.9032H53.4261C53.9407 38.9032 54.3594 39.3217 54.3594 39.8363ZM42.8485 35.3961H51.729V37.2624H42.8485V35.3961ZM41.1515 13.477C41.1826 13.477 41.208 13.5022 41.208 13.5334V27.5616C41.208 27.5928 41.1826 27.6182 41.1515 27.6182H38.4648V13.477H41.1515ZM3.39412 32.8222V8.2728C3.39412 7.75819 3.81281 7.33962 4.32731 7.33962H35.8909C36.4055 7.33962 36.824 7.7583 36.824 8.2728V32.8222C36.824 33.3368 36.4054 33.7554 35.8909 33.7554H4.32731C3.81281 33.7554 3.39412 33.3367 3.39412 32.8222ZM13.9153 35.3961H26.3029V37.2624H13.9153V35.3961ZM1.64062 46.8505V39.8363C1.64062 39.3217 2.05931 38.9032 2.57381 38.9032H38.5775V47.7836H2.57381C2.05931 47.7836 1.64062 47.365 1.64062 46.8505ZM53.4262 47.7836H40.2182V45.9173H54.3594V46.8505C54.3594 47.365 53.9407 47.7836 53.4262 47.7836Z" fill="black"/>
<path d="M35.8907 40.7695H4.32715C3.87412 40.7695 3.50684 41.1368 3.50684 41.5898C3.50684 42.0429 3.87412 42.4101 4.32715 42.4101H35.8907C36.3437 42.4101 36.711 42.0429 36.711 41.5898C36.711 41.1368 36.3437 40.7695 35.8907 40.7695Z" fill="black"/>
<path d="M7.83477 29.3717H6.90137V10.8466H28.8765C29.3296 10.8466 29.6968 10.4793 29.6968 10.0263C29.6968 9.57327 29.3296 9.20599 28.8765 9.20599H6.08105C5.62802 9.20599 5.26074 9.57327 5.26074 10.0263V30.1919C5.26074 30.6449 5.62802 31.0122 6.08105 31.0122H7.83477C8.2878 31.0122 8.65508 30.6449 8.65508 30.1919C8.65508 29.7389 8.2878 29.3717 7.83477 29.3717Z" fill="black"/>
<path d="M34.9576 30.192V10.0263C34.9576 9.57327 34.5903 9.20599 34.1373 9.20599H32.3836C31.9305 9.20599 31.5633 9.57327 31.5633 10.0263C31.5633 10.4793 31.9305 10.8466 32.3836 10.8466H33.317V29.3716H11.3418C10.8888 29.3716 10.5215 29.7388 10.5215 30.1919C10.5215 30.6449 10.8888 31.0122 11.3418 31.0122H34.1373C34.5903 31.0123 34.9576 30.645 34.9576 30.192Z" fill="black"/>
<path d="M13.9722 14.4665C12.553 14.4665 11.3984 15.6212 11.3984 17.0403V23.1777C11.3984 24.5969 12.5531 25.7515 13.9722 25.7515H26.247C27.6662 25.7515 28.8208 24.5968 28.8208 23.1777V17.0403C28.8208 15.6211 27.6661 14.4665 26.247 14.4665H13.9722ZM27.1802 17.0403V23.1777C27.1802 23.6923 26.7615 24.1108 26.247 24.1108H13.9722C13.4576 24.1108 13.0391 23.6922 13.0391 23.1777V17.0403C13.0391 16.5257 13.4577 16.1071 13.9722 16.1071H26.247C26.7615 16.1071 27.1802 16.5258 27.1802 17.0403Z" fill="black"/>
<path d="M24.4922 20.6041H15.7246C15.2716 20.6041 14.9043 20.9713 14.9043 21.4244C14.9043 21.8774 15.2716 22.2447 15.7246 22.2447H24.4922C24.9453 22.2447 25.3125 21.8774 25.3125 21.4244C25.3125 20.9713 24.9453 20.6041 24.4922 20.6041Z" fill="black"/>
</svg>
