<svg width="56" height="56" viewBox="0 0 56 56" fill="none" xmlns="http://www.w3.org/2000/svg">
<path d="M40.25 40.2544C39.7661 40.2544 39.375 39.8624 39.375 39.3794V32.3794C39.375 31.8964 39.7661 31.5044 40.25 31.5044C40.7339 31.5044 41.125 31.8964 41.125 32.3794V39.3794C41.125 39.8624 40.7339 40.2544 40.25 40.2544Z" fill="black"/>
<path d="M47.25 40.2544H40.25C39.7661 40.2544 39.375 39.8624 39.375 39.3794C39.375 38.8964 39.7661 38.5044 40.25 38.5044H47.25C47.7339 38.5044 48.125 38.8964 48.125 39.3794C48.125 39.8624 47.7339 40.2544 47.25 40.2544Z" fill="black"/>
<path d="M23.4369 49.0041C23.2855 49.0041 23.135 48.9656 22.9994 48.8869L4.8125 38.3869C4.54125 38.2302 4.375 37.9415 4.375 37.6291V16.6291C4.375 16.3167 4.54125 16.0271 4.8125 15.8714L22.9994 5.37138C23.2706 5.21475 23.6031 5.21475 23.8744 5.37138L42.0612 15.8714C42.3325 16.028 42.4987 16.3167 42.4987 16.6291V25.4465C42.4987 25.9295 42.1076 26.3215 41.6237 26.3215C41.1399 26.3215 40.7487 25.9295 40.7487 25.4465V17.134L23.4369 7.13975L6.125 17.134V37.1243L23.4369 47.1185L27.2956 44.8908C27.7147 44.6484 28.2494 44.7919 28.4909 45.211C28.7324 45.6301 28.5889 46.1647 28.1706 46.4062L23.8744 48.886C23.7387 48.9647 23.5882 49.0041 23.4369 49.0041Z" fill="black"/>
<path d="M40.1682 50.7461C40.1673 50.7461 40.1682 50.7461 40.1682 50.7461C39.0788 50.7461 37.9947 50.5842 36.9438 50.2657C32.9171 49.0442 29.8248 45.5845 29.0636 41.451C28.2883 37.2431 29.9946 32.862 33.4132 30.2877C35.3575 28.8238 37.7935 28.0171 40.2723 28.0171C42.0661 28.0171 43.8423 28.4397 45.4112 29.2403C49.1868 31.1653 51.6255 35.1448 51.6255 39.379C51.6255 42.431 50.3952 45.3036 48.1605 47.4657C46.008 49.55 43.0942 50.7461 40.1682 50.7461ZM40.2723 29.7671C38.1715 29.7671 36.1082 30.4487 34.4658 31.6851C31.5731 33.8638 30.1285 37.573 30.7847 41.1333C31.4278 44.6307 34.0458 47.5576 37.4513 48.5901C40.73 49.585 44.4356 48.6347 46.9433 46.2075C48.8351 44.3787 49.8755 41.9532 49.8755 39.379C49.8755 35.7958 47.8113 32.428 44.6167 30.7987C43.2937 30.1241 41.7913 29.7671 40.2723 29.7671Z" fill="black"/>
<path d="M12.5937 21.7438C12.2909 21.7438 11.9969 21.5871 11.835 21.3063C11.5935 20.8871 11.737 20.3525 12.1553 20.111L30.3422 9.61101C30.7586 9.36864 31.295 9.51214 31.5374 9.93126C31.7789 10.3504 31.6354 10.885 31.2171 11.1265L13.0303 21.6265C12.8929 21.7061 12.7424 21.7438 12.5937 21.7438Z" fill="black"/>
<path d="M16.0937 23.7644C15.7909 23.7644 15.4969 23.6077 15.335 23.3269C15.0935 22.9077 15.237 22.3731 15.6553 22.1316L33.8422 11.6316C34.2595 11.3901 34.795 11.5327 35.0374 11.9519C35.2789 12.371 35.1354 12.9056 34.7172 13.1471L16.5303 23.6471C16.3929 23.7267 16.2424 23.7644 16.0937 23.7644Z" fill="black"/>
<path d="M16.0938 29.8267C15.6108 29.8267 15.2188 29.4347 15.2188 28.9517V22.8896C15.2188 22.4066 15.6108 22.0146 16.0938 22.0146C16.5768 22.0146 16.9688 22.4066 16.9688 22.8896V28.9517C16.9688 29.4347 16.5768 29.8267 16.0938 29.8267Z" fill="black"/>
<path d="M16.0921 29.8267C15.9442 29.8267 15.7929 29.7891 15.6555 29.7095L12.1555 27.6882C11.7364 27.4467 11.5937 26.9112 11.8352 26.493C12.0767 26.0747 12.6122 25.9295 13.0305 26.1727L16.5305 28.194C16.9496 28.4355 17.0922 28.971 16.8507 29.3892C16.6889 29.6701 16.3949 29.8267 16.0921 29.8267Z" fill="black"/>
<path d="M12.5938 27.8052C12.1108 27.8052 11.7188 27.4132 11.7188 26.9302V20.8682C11.7188 20.3852 12.1108 19.9932 12.5938 19.9932C13.0768 19.9932 13.4688 20.3852 13.4688 20.8682V26.9302C13.4688 27.414 13.0768 27.8052 12.5938 27.8052Z" fill="black"/>
<path d="M23.4365 49.0039C22.9535 49.0039 22.5615 48.6119 22.5615 48.1289V27.1289C22.5615 26.6459 22.9535 26.2539 23.4365 26.2539C23.9195 26.2539 24.3115 26.6459 24.3115 27.1289V48.1289C24.3115 48.6119 23.9195 49.0039 23.4365 49.0039Z" fill="black"/>
<path d="M23.4362 28.0043C23.2883 28.0043 23.1378 27.9667 22.9996 27.8871L4.81271 17.3871C4.39358 17.1456 4.25096 16.6101 4.49246 16.1918C4.73396 15.7736 5.26858 15.6292 5.68771 15.8716L23.8746 26.3716C24.2937 26.6131 24.4363 27.1486 24.1948 27.5668C24.0321 27.8477 23.7381 28.0043 23.4362 28.0043Z" fill="black"/>
<path d="M23.4384 28.004C23.1356 28.004 22.8416 27.8474 22.6798 27.5665C22.4383 27.1474 22.5818 26.6128 23 26.3713L41.1869 15.8713C41.6043 15.6289 42.1398 15.7724 42.3821 16.1915C42.6236 16.6106 42.4801 17.1453 42.0619 17.3868L23.875 27.8868C23.7368 27.9664 23.5863 28.004 23.4384 28.004Z" fill="black"/>
</svg>
