<svg width="56" height="56" viewBox="0 0 56 56" fill="none" xmlns="http://www.w3.org/2000/svg">
<path d="M16.3779 24.898C16.3779 24.0634 15.6988 23.3843 14.8641 23.3843H12.7482C11.9135 23.3843 11.2344 24.0634 11.2344 24.898V26.6293C11.2344 27.4641 11.9135 28.1432 12.7482 28.1432H14.8641C15.6988 28.1432 16.3779 27.4641 16.3779 26.6293V24.898ZM14.7368 26.5021H12.8755V25.0253H14.7368V26.5021Z" fill="black"/>
<path d="M9.2948 24.898C9.2948 24.0634 8.61571 23.3843 7.78094 23.3843H5.66523C4.83046 23.3843 4.15137 24.0634 4.15137 24.898V26.6293C4.15137 27.4641 4.83046 28.1432 5.66523 28.1432H7.78094C8.61571 28.1432 9.2948 27.4641 9.2948 26.6293V24.898ZM7.6537 26.5021H5.79247V25.0253H7.6537V26.5021Z" fill="black"/>
<path d="M16.3779 31.1296C16.3779 30.2948 15.6988 29.6157 14.8641 29.6157H12.7482C11.9135 29.6157 11.2344 30.2948 11.2344 31.1296V32.8608C11.2344 33.6955 11.9135 34.3746 12.7482 34.3746H14.8641C15.6988 34.3746 16.3779 33.6955 16.3779 32.8608V31.1296ZM14.7368 32.7336H12.8755V31.2568H14.7368V32.7336Z" fill="black"/>
<path d="M9.2948 31.1296C9.2948 30.2948 8.61571 29.6157 7.78094 29.6157H5.66523C4.83046 29.6157 4.15137 30.2948 4.15137 31.1296V32.8608C4.15137 33.6955 4.83046 34.3746 5.66523 34.3746H7.78094C8.61571 34.3746 9.2948 33.6955 9.2948 32.8608V31.1296ZM7.6537 32.7336H5.79247V31.2568H7.6537V32.7336Z" fill="black"/>
<path d="M14.8641 35.8472H12.7482C11.9135 35.8472 11.2344 36.5263 11.2344 37.361V39.0923C11.2344 39.9271 11.9135 40.6061 12.7482 40.6061H14.8641C15.6988 40.6061 16.3779 39.9271 16.3779 39.0923V37.361C16.3778 36.5263 15.6987 35.8472 14.8641 35.8472ZM14.7367 38.9649H12.8754V37.4882H14.7367V38.9649Z" fill="black"/>
<path d="M7.78094 35.8472H5.66523C4.83046 35.8472 4.15137 36.5263 4.15137 37.361V39.0923C4.15137 39.9271 4.83046 40.6061 5.66523 40.6061H7.78094C8.61571 40.6061 9.2948 39.9271 9.2948 39.0923V37.361C9.2948 36.5263 8.61571 35.8472 7.78094 35.8472ZM7.6537 38.9649H5.79247V37.4882H7.6537V38.9649Z" fill="black"/>
<path d="M19.8322 40.6066H21.9479C22.7827 40.6066 23.4618 39.9275 23.4618 39.0928V37.3615C23.4618 36.5267 22.7827 35.8477 21.9479 35.8477H19.8322C18.9974 35.8477 18.3184 36.5267 18.3184 37.3615V39.0928C18.3184 39.9275 18.9974 40.6066 19.8322 40.6066ZM19.9595 37.4889H21.8207V38.9656H19.9595V37.4889Z" fill="black"/>
<path d="M55.0217 48.8544L53.7057 46.5535L54.5529 38.1567C54.9821 33.9026 53.2863 29.7177 50.0166 26.9624L43.1146 21.1466L35.9146 8.55715C35.4581 7.75902 34.7181 7.18639 33.831 6.94482C32.9438 6.70336 32.0156 6.82152 31.2176 7.27807L26.7439 9.83666V4.6034C26.7439 2.06505 24.6788 0 22.1406 0H5.47254C2.93419 0 0.869141 2.06505 0.869141 4.6034V39.4937C0.869141 41.8733 2.68398 43.8369 5.0022 44.0732V53.5358C5.0022 53.9173 5.19465 54.267 5.51707 54.471C5.8396 54.6752 6.23806 54.6995 6.5828 54.5362L8.37981 53.6855L10.6998 54.6908C10.8398 54.7515 10.9896 54.7818 11.1395 54.7818C11.2951 54.7818 11.4506 54.7492 11.5953 54.6838L13.8125 53.6824L16.1208 54.6883C16.414 54.8161 16.748 54.8111 17.0371 54.6741L19.1179 53.6883L21.0509 54.5558C21.3948 54.7101 21.789 54.68 22.1056 54.4751C22.422 54.2702 22.6109 53.9229 22.6109 53.5459V44.0732C24.9291 43.8369 26.744 41.8733 26.744 39.4937V36.7736L27.7557 38.5425C27.8652 38.734 27.9914 38.9122 28.1317 39.0762L27.78 40.8352C27.6298 41.5866 27.7814 42.3514 28.2064 42.9889C28.6315 43.6264 29.2794 44.0602 30.0307 44.2103C30.2199 44.2482 30.4101 44.2669 30.5988 44.2669C31.1593 44.2669 31.7074 44.102 32.1843 43.7841C32.1926 43.7785 32.2005 43.7726 32.2087 43.767C32.6154 44.3901 33.2617 44.8563 34.0472 45.0133C34.2337 45.0506 34.4209 45.0686 34.6064 45.0686C35.0822 45.0686 35.5461 44.9485 35.9583 44.7281C36.994 47.7861 38.8315 50.5556 41.3045 52.6937L41.8813 53.1925L43.2505 55.5866C43.402 55.8514 43.6788 55.9999 43.9635 55.9999C44.1017 55.9999 44.2416 55.965 44.3702 55.8915C44.7635 55.6665 44.9 55.1652 44.6751 54.7718L43.2364 52.2561C43.1903 52.1756 43.131 52.1035 43.0608 52.0428L42.378 51.4524C38.9521 48.4903 36.8662 44.197 36.655 39.673L36.3694 33.5553C36.3513 33.1676 36.2399 32.7844 36.0471 32.4471L33.2428 27.5439C33.0365 27.1832 32.983 26.7638 33.0923 26.3628C33.2016 25.9618 33.4603 25.6273 33.8211 25.4211C34.1819 25.2148 34.6011 25.1611 35.0023 25.2706C35.4033 25.3798 35.7378 25.6385 35.944 25.9992L37.5109 28.739C37.736 29.1324 38.2373 29.2688 38.6305 29.044C39.0239 28.819 39.1604 28.3177 38.9355 27.9243L37.3687 25.1846C36.9447 24.4433 36.2575 23.9115 35.4336 23.6871C34.6097 23.4628 33.7476 23.5727 33.0064 23.9966C31.4762 24.8718 30.9433 26.8287 31.8185 28.3589L34.6227 33.262C34.687 33.3746 34.7242 33.5025 34.7302 33.6319L34.8666 36.5507L31.638 38.3972C31.2203 38.636 30.7348 38.6981 30.2706 38.5715C29.8064 38.4451 29.4192 38.1455 29.1803 37.7279L22.726 26.4425C22.501 26.0491 21.9995 25.9125 21.6063 26.1376C21.213 26.3626 21.0765 26.8639 21.3014 27.2573L22.8018 29.8808C22.5586 29.7139 22.2646 29.6159 21.948 29.6159H19.8323C18.9975 29.6159 18.3184 30.295 18.3184 31.1297V32.861C18.3184 33.6957 18.9975 34.3748 19.8323 34.3748H21.948C22.7828 34.3748 23.4619 33.6957 23.4619 32.861V31.1297C23.4619 31.0946 23.4589 31.0602 23.4566 31.0256L25.103 33.9043V39.4938C25.103 41.1272 23.7741 42.4561 22.1408 42.4561H5.47254C3.8391 42.4561 2.51024 41.1272 2.51024 39.4938V4.6034C2.51024 2.96996 3.8391 1.6411 5.47254 1.6411H22.1406C23.7739 1.6411 25.1028 2.96996 25.1028 4.6034V10.7753L23.4617 11.7139V7.52292C23.4617 6.79449 22.869 6.20184 22.1406 6.20184H5.47254C4.744 6.20184 4.15135 6.79449 4.15135 7.52303V11.0249C4.15135 11.4781 4.51873 11.8455 4.9719 11.8455C5.42506 11.8455 5.79245 11.4781 5.79245 11.0249V7.84294H21.8205V12.6524L18.1233 14.767C16.6257 15.6234 16.0155 17.4423 16.6245 19.0039H5.79245V14.5218C5.79245 14.0686 5.42506 13.7012 4.9719 13.7012C4.51873 13.7012 4.15135 14.0686 4.15135 14.5218V19.3238C4.15135 20.0523 4.744 20.645 5.47254 20.645H17.5195L19.5652 24.2218C19.7903 24.6151 20.2915 24.7517 20.6849 24.5267C21.0783 24.3018 21.2148 23.8005 20.9898 23.407L18.2688 18.6494C17.7757 17.7873 18.076 16.6847 18.9381 16.1917L32.0325 8.70277C32.4501 8.46393 32.9356 8.4019 33.3998 8.52848C33.8641 8.65485 34.2512 8.95451 34.4901 9.37212L45.4014 28.4508C45.6403 28.8684 45.7022 29.3541 45.5758 29.8183C45.4494 30.2825 45.1498 30.6696 44.7322 30.9084L41.6501 32.6711L40.6713 30.9597C40.4463 30.5663 39.9449 30.4299 39.5517 30.6548C39.1584 30.8798 39.0218 31.3811 39.2468 31.7745L41.4604 35.645C41.6119 35.9098 41.8887 36.0583 42.1734 36.0583C42.3116 36.0583 42.4515 36.0234 42.5801 35.9499C42.9734 35.7249 43.1099 35.2236 42.885 34.8302L42.4649 34.0957L45.547 32.333C46.3451 31.8766 46.9177 31.1365 47.1593 30.2495C47.4009 29.3624 47.2825 28.4342 46.826 27.6361L45.4838 25.2893L48.959 28.2177C51.8141 30.6235 53.2949 34.2776 52.9202 37.9922L52.0467 46.6505C52.0295 46.8207 52.066 46.9919 52.1509 47.1403L53.5973 49.6695C53.7489 49.9344 54.0257 50.0828 54.3103 50.0828C54.4485 50.0828 54.5884 50.0479 54.717 49.9744C55.1103 49.7492 55.2467 49.2478 55.0217 48.8544ZM35.0157 39.7497C35.0681 40.8711 35.2262 41.9794 35.4814 43.0612C35.1956 43.3507 34.7784 43.4858 34.3689 43.4041C33.7052 43.2715 33.2732 42.6236 33.4058 41.9599L34.0113 38.9303L34.9522 38.3922L35.0157 39.7497ZM30.7491 40.2775C31.2218 40.2775 31.6892 40.1776 32.1271 39.9843L31.7965 41.6382C31.7323 41.9596 31.5466 42.2368 31.2738 42.4188C31.001 42.6008 30.6737 42.6655 30.3523 42.6012C30.0309 42.5369 29.7536 42.3513 29.5717 42.0785C29.3898 41.8058 29.325 41.4785 29.3893 41.157L29.6044 40.081C29.6815 40.1079 29.7596 40.1332 29.8392 40.1549C30.14 40.2369 30.4455 40.2775 30.7491 40.2775ZM21.8205 32.7337H19.9593V31.2569H21.8205V32.7337ZM20.9697 52.7206L19.5647 52.0901C19.2689 51.9575 18.9312 51.9609 18.6378 52.0998L16.5539 53.0869L14.2508 52.0832C13.9648 51.9585 13.6376 51.9607 13.3529 52.0893L11.1351 53.091L8.81033 52.0836C8.66974 52.0226 8.51996 51.9922 8.37007 51.9922C8.20815 51.9922 8.04623 52.0278 7.89634 52.0987L6.6432 52.692V44.0971H20.9697V52.7206Z" fill="black"/>
<path d="M32.364 14.8377C32.483 14.4004 32.2251 13.9495 31.7878 13.8304C30.1721 13.3905 28.4817 13.6059 27.028 14.4373C25.5744 15.2687 24.5316 16.6164 24.0915 18.2322C23.9725 18.6695 24.2304 19.1205 24.6677 19.2395C24.7399 19.2592 24.8124 19.2686 24.8837 19.2686C25.2447 19.2686 25.5755 19.0286 25.675 18.6635C25.9998 17.4706 26.7697 16.4757 27.8428 15.862C28.9159 15.2482 30.1637 15.0891 31.3567 15.414C31.7938 15.5329 32.245 15.2749 32.364 14.8377Z" fill="black"/>
<path d="M30.493 18.5815C30.93 18.7003 31.3812 18.4427 31.5004 18.0055C31.6196 17.5683 31.3616 17.1172 30.9244 16.9981C30.1542 16.7883 29.3487 16.8905 28.6567 17.2862C27.9648 17.6818 27.4684 18.324 27.2585 19.0945C27.1395 19.5318 27.3974 19.9828 27.8347 20.1018C27.9069 20.1215 27.9794 20.1309 28.0507 20.1309C28.4117 20.1309 28.7425 19.8909 28.842 19.5258C28.9366 19.1782 29.1602 18.8889 29.4715 18.7107C29.7828 18.5328 30.1455 18.4869 30.493 18.5815Z" fill="black"/>
<path d="M30.1729 21.5904C30.3244 21.8553 30.6012 22.0038 30.8859 22.0038C31.0241 22.0038 31.164 21.9689 31.2926 21.8954C31.6859 21.6704 31.8224 21.1691 31.5975 20.7757L31.325 20.2991C31.0999 19.9057 30.5986 19.7691 30.2053 19.9942C29.812 20.2191 29.6754 20.7204 29.9004 21.1139L30.1729 21.5904Z" fill="black"/>
</svg>
