<svg width="56" height="56" viewBox="0 0 56 56" fill="none" xmlns="http://www.w3.org/2000/svg">
<path d="M53.4262 37.2628H53.3698V34.5761C53.3698 34.123 53.0025 33.7558 52.5494 33.7558H42.0283C41.5753 33.7558 41.208 34.123 41.208 34.5761V37.2628H27.9436V35.3964H35.8909C37.3101 35.3964 38.4647 34.2417 38.4647 32.8226V29.259H41.1514C42.0872 29.259 42.8485 28.4977 42.8485 27.5619V13.5336C42.8485 12.5978 42.0872 11.8366 41.1514 11.8366H38.4647V8.27303C38.4647 6.85378 37.31 5.69922 35.8909 5.69922H4.32731C2.90806 5.69922 1.7535 6.85389 1.7535 8.27303V32.8225C1.7535 34.2417 2.90817 35.3963 4.32731 35.3963H12.2747V37.2627H2.57381C1.15467 37.2628 0 38.4173 0 39.8366V46.8507C0 48.2699 1.15467 49.4245 2.57381 49.4245H2.63309C2.63178 49.4432 2.63025 49.4619 2.63025 49.4809C2.63025 49.934 2.99753 50.3012 3.45056 50.3012H5.20406C5.65709 50.3012 6.02437 49.934 6.02437 49.4809C6.02437 49.4619 6.02284 49.4432 6.02153 49.4245H49.9784C49.977 49.4432 49.9755 49.4619 49.9755 49.4809C49.9755 49.934 50.3428 50.3012 50.7958 50.3012H52.5493C53.0024 50.3012 53.3696 49.934 53.3696 49.4809C53.3696 49.4619 53.3681 49.4432 53.3668 49.4245H53.4261C54.8453 49.4245 55.9999 48.2698 55.9999 46.8507V39.8366C56 38.4173 54.8453 37.2628 53.4262 37.2628ZM54.3594 39.8366V44.2769H40.2182V38.9034H53.4261C53.9407 38.9034 54.3594 39.322 54.3594 39.8366ZM42.8485 35.3963H51.729V37.2627H42.8485V35.3963ZM41.1515 13.4772C41.1826 13.4772 41.208 13.5025 41.208 13.5336V27.5619C41.208 27.593 41.1826 27.6184 41.1515 27.6184H38.4648V13.4772H41.1515ZM3.39412 32.8225V8.27303C3.39412 7.75842 3.81281 7.33984 4.32731 7.33984H35.8909C36.4055 7.33984 36.824 7.75853 36.824 8.27303V32.8225C36.824 33.3371 36.4054 33.7557 35.8909 33.7557H4.32731C3.81281 33.7557 3.39412 33.337 3.39412 32.8225ZM13.9153 35.3963H26.3029V37.2627H13.9153V35.3963ZM1.64062 46.8507V39.8366C1.64062 39.322 2.05931 38.9034 2.57381 38.9034H38.5775V47.7839H2.57381C2.05931 47.7839 1.64062 47.3652 1.64062 46.8507ZM53.4262 47.7839H40.2182V45.9175H54.3594V46.8507C54.3594 47.3652 53.9407 47.7839 53.4262 47.7839Z" fill="black"/>
<path d="M35.8907 40.7695H4.32715C3.87412 40.7695 3.50684 41.1368 3.50684 41.5898C3.50684 42.0429 3.87412 42.4102 4.32715 42.4102H35.8907C36.3437 42.4102 36.711 42.0429 36.711 41.5898C36.711 41.1368 36.3437 40.7695 35.8907 40.7695Z" fill="black"/>
<path d="M7.83477 29.3717H6.90137V10.8467H28.8765C29.3296 10.8467 29.6968 10.4794 29.6968 10.0264C29.6968 9.57334 29.3296 9.20605 28.8765 9.20605H6.08105C5.62802 9.20605 5.26074 9.57334 5.26074 10.0264V30.1919C5.26074 30.645 5.62802 31.0123 6.08105 31.0123H7.83477C8.2878 31.0123 8.65508 30.645 8.65508 30.1919C8.65508 29.7389 8.2878 29.3717 7.83477 29.3717Z" fill="black"/>
<path d="M34.9576 30.192V10.0264C34.9576 9.57334 34.5903 9.20605 34.1373 9.20605H32.3836C31.9305 9.20605 31.5633 9.57334 31.5633 10.0264C31.5633 10.4794 31.9305 10.8467 32.3836 10.8467H33.317V29.3716H11.3418C10.8888 29.3716 10.5215 29.7389 10.5215 30.1919C10.5215 30.645 10.8888 31.0122 11.3418 31.0122H34.1373C34.5903 31.0124 34.9576 30.6451 34.9576 30.192Z" fill="black"/>
<path d="M13.9722 14.4668C12.553 14.4668 11.3984 15.6215 11.3984 17.0406V23.178C11.3984 24.5972 12.5531 25.7518 13.9722 25.7518H26.247C27.6662 25.7518 28.8208 24.5971 28.8208 23.178V17.0406C28.8208 15.6214 27.6661 14.4668 26.247 14.4668H13.9722ZM27.1802 17.0406V23.178C27.1802 23.6926 26.7615 24.1112 26.247 24.1112H13.9722C13.4576 24.1112 13.0391 23.6925 13.0391 23.178V17.0406C13.0391 16.526 13.4577 16.1074 13.9722 16.1074H26.247C26.7615 16.1074 27.1802 16.5261 27.1802 17.0406Z" fill="black"/>
<path d="M24.4922 20.6045H15.7246C15.2716 20.6045 14.9043 20.9718 14.9043 21.4248C14.9043 21.8778 15.2716 22.2451 15.7246 22.2451H24.4922C24.9453 22.2451 25.3125 21.8778 25.3125 21.4248C25.3125 20.9718 24.9453 20.6045 24.4922 20.6045Z" fill="black"/>
</svg>
