<svg width="56" height="56" viewBox="0 0 56 56" fill="none" xmlns="http://www.w3.org/2000/svg">
<g clip-path="url(#clip0_1517_12606)">
<path d="M23.7786 12.1215C23.3254 12.1215 22.9582 12.4888 22.9582 12.9418C22.9582 13.3948 23.3254 13.7621 23.7786 13.7621H30.6552C30.6554 13.7621 30.6556 13.7622 30.6558 13.7622C30.6562 13.7622 30.6565 13.7621 30.6568 13.7621H32.2199C32.6729 13.7621 33.0402 13.3948 33.0402 12.9418C33.0402 12.4888 32.6729 12.1215 32.2199 12.1215H32.1907C33.0705 10.5665 33.8162 8.37583 32.9751 6.61577C32.4992 5.6198 31.6152 4.94725 30.3414 4.59987C30.333 4.59736 30.3243 4.59517 30.3158 4.59298C29.8653 4.47213 29.3669 4.3913 28.8195 4.35192V3.05692H29.1785C29.6316 3.05692 29.9988 2.68964 29.9988 2.23661C29.9988 1.78358 29.6316 1.4163 29.1785 1.4163H28.8195V0.820312C28.8195 0.367281 28.4524 0 27.9992 0C27.5461 0 27.1789 0.367281 27.1789 0.820312V1.41619H26.8199C26.3668 1.41619 25.9996 1.78347 25.9996 2.2365C25.9996 2.68953 26.3668 3.05681 26.8199 3.05681H27.1789V4.35181C26.6309 4.39119 26.1321 4.47223 25.6811 4.59331C25.6731 4.59539 25.6652 4.59747 25.6573 4.59977C24.3834 4.94714 23.4993 5.61969 23.0233 6.61577C22.1822 8.37583 22.9281 10.5666 23.8078 12.1215H23.7786ZM27.9992 5.96247C28.4222 5.96247 28.8073 5.98675 29.1585 6.03258L28.8252 7.90869C28.8136 7.97453 28.7565 8.02233 28.6896 8.02233H27.3083C27.2415 8.02233 27.1844 7.97453 27.1728 7.90869L26.8396 6.03269C27.1907 5.98675 27.5761 5.96247 27.9992 5.96247ZM24.5036 7.32309C24.659 6.99781 24.9128 6.73116 25.26 6.52203L25.5572 8.19547C25.7081 9.04575 26.4445 9.66295 27.3082 9.66295H28.6895C29.5532 9.66295 30.2896 9.04575 30.4406 8.19558L30.738 6.5217C31.0856 6.73094 31.3393 6.99759 31.4948 7.32298C32.1219 8.63505 31.1999 10.8023 30.2498 12.1214H25.7487C24.7986 10.8023 23.8766 8.63516 24.5036 7.32309ZM35.8412 19.5664C36.2943 19.5664 36.6615 19.1991 36.6615 18.7461V18.1756C36.6615 17.7226 36.2943 17.3553 35.8412 17.3553C35.3881 17.3553 35.0209 17.7226 35.0209 18.1756V18.7461C35.0209 19.1991 35.3881 19.5664 35.8412 19.5664ZM20.1571 17.3553C19.704 17.3553 19.3368 17.7226 19.3368 18.1756V18.7461C19.3368 19.1991 19.704 19.5664 20.1571 19.5664C20.6103 19.5664 20.9775 19.1991 20.9775 18.7461V18.1756C20.9775 17.7226 20.6103 17.3553 20.1571 17.3553ZM31.9047 32.54C31.4515 32.54 31.0844 32.9073 31.0844 33.3604V34.0086C31.0844 34.4617 31.4515 34.8289 31.9047 34.8289C32.3578 34.8289 32.725 34.4617 32.725 34.0086V33.3604C32.725 32.9073 32.3577 32.54 31.9047 32.54ZM55.0224 25.5427C54.8283 24.4012 53.6212 23.6856 51.3325 23.3548C49.6309 23.1089 47.7791 23.1307 46.7693 23.1696C46.2364 22.6639 45.4324 22.3832 44.3712 22.3333C43.8448 22.309 43.3266 22.5024 42.9456 22.865C42.5628 23.2293 42.3513 23.7195 42.35 24.2453C42.344 26.5323 41.647 28.2726 40.2786 29.4178C39.0357 30.458 37.4214 30.8141 36.2888 30.7307V27.777C36.2888 26.7544 35.5064 25.9116 34.5088 25.8147C34.8814 24.6645 35.3504 23.5026 35.7885 22.6655C36.0049 22.252 36.4274 21.9952 36.8913 21.9952H38.1839C38.1842 21.9952 38.1847 21.9953 38.185 21.9953C38.1853 21.9953 38.1858 21.9952 38.1861 21.9952H40.4742C40.7112 21.9952 40.9436 22.0381 41.1649 22.1226L41.9175 22.4105C42.3916 22.5917 42.9249 22.4988 43.3094 22.1678C43.6941 21.8368 43.8656 21.3233 43.757 20.8276L43.5482 19.8743C43.2774 18.6375 42.3633 17.6198 41.1626 17.2181L40.1957 16.8948C40.0653 16.8512 39.9505 16.7645 39.873 16.6507L39.7203 16.4268C39.296 15.805 38.5934 15.4338 37.8408 15.4338H34.6386C33.483 15.4338 31.8467 15.3728 30.9843 14.8456C30.6295 14.6286 30.1888 14.5949 29.8056 14.7552C29.4261 14.9142 29.1438 15.2479 29.0506 15.6478C28.5489 17.7972 29.4186 18.9441 30.0869 19.4826C29.4111 20.7283 28.5998 22.4345 27.9996 24.3527C27.3993 22.4345 26.5881 20.7283 25.9122 19.4826C26.5805 18.9442 27.4502 17.7972 26.9485 15.6481C26.8552 15.2479 26.5729 14.9142 26.1936 14.7552C25.8103 14.5949 25.3699 14.6286 25.0147 14.8457C24.1524 15.3729 22.5161 15.4339 21.3605 15.4339H18.1583C17.4057 15.4339 16.7031 15.8051 16.2787 16.427L16.126 16.6507C16.0485 16.7646 15.9337 16.8512 15.8033 16.8948L14.8364 17.2181C13.6356 17.6198 12.7215 18.6375 12.4507 19.8743L12.2419 20.8277C12.1333 21.3234 12.3048 21.8369 12.6895 22.1679C13.0741 22.499 13.6077 22.592 14.0815 22.4106L14.8339 22.1228C15.0551 22.0382 15.2876 21.9953 15.5246 21.9953H17.8127C17.813 21.9953 17.8135 21.9954 17.8138 21.9954C17.8141 21.9954 17.8146 21.9953 17.8149 21.9953H19.1075C19.5713 21.9953 19.9939 22.2521 20.2103 22.6656C20.6485 23.5027 21.1174 24.6646 21.49 25.8148C20.4924 25.9117 19.71 26.7545 19.71 27.7771V30.7308C18.5779 30.8141 16.9631 30.4582 15.7201 29.4179C14.3516 28.2727 13.6547 26.5324 13.6488 24.2455C13.6474 23.7196 13.4359 23.2294 13.0531 22.8652C12.6722 22.5026 12.1537 22.3094 11.6275 22.3335C10.3946 22.3915 9.66426 22.7676 9.23332 23.1698C8.61732 23.1457 7.79307 23.1319 6.87552 23.1665C6.42271 23.1835 6.06954 23.5643 6.08649 24.017C6.10355 24.4697 6.48418 24.8254 6.93699 24.8059C7.7736 24.7746 8.70012 24.7819 9.54548 24.8265C9.83357 24.8409 10.1081 24.7046 10.2691 24.4657C10.4573 24.1862 10.9805 24.0064 11.7045 23.9724C11.8141 23.9681 11.8879 24.0212 11.922 24.0536C11.9611 24.0909 12.0078 24.1551 12.0081 24.2498C12.0171 27.7296 13.4591 29.6652 14.6671 30.6762C16.1186 31.8908 17.9378 32.3832 19.3951 32.3832C19.5023 32.3832 19.6069 32.3796 19.7099 32.3743V37.9873C19.1914 38.673 18.7504 38.8989 18.5126 38.929C18.2845 38.5718 18.0766 37.0947 18.4316 35.1306C18.4962 34.7741 18.3192 34.4177 17.9964 34.2534C17.6732 34.0892 17.2812 34.1562 17.0311 34.4182C16.0928 35.4014 14.8052 36.3896 13.6712 36.9972C12.5699 37.5872 11.8236 37.7058 11.5172 37.5644C11.5739 37.1597 12.2116 36.0409 13.5627 34.6209C13.8333 34.3365 13.8645 33.9003 13.6372 33.5803C13.4099 33.2603 12.9878 33.1464 12.6301 33.3081C10.1396 34.4356 7.39494 34.9029 6.71113 34.6586C6.76407 34.2451 7.54577 33.3689 9.32618 32.4476C9.68307 32.263 9.85359 31.8472 9.72934 31.4651C9.60498 31.0833 9.2226 30.8471 8.82513 30.9082C5.75574 31.3782 4.02652 30.4305 3.82473 30.022C3.89757 29.9193 4.30969 29.4713 6.15409 29.0194C6.55013 28.9223 6.81471 28.5491 6.77534 28.1432C6.73585 27.7373 6.40423 27.4221 5.99702 27.4031C3.68998 27.296 2.95607 26.6823 2.7476 26.4234C2.60104 26.2413 2.55368 26.0545 2.59382 25.8182C2.60301 25.7643 2.73513 25.5807 3.22962 25.3819C3.64994 25.2129 3.85371 24.7352 3.68473 24.3148C3.51563 23.8945 3.03777 23.6906 2.61755 23.8597C1.65276 24.2476 1.10052 24.8139 0.976382 25.5429C0.857163 26.2432 1.0279 26.9035 1.46977 27.4524C1.83323 27.9037 2.36041 28.2613 3.04685 28.5235C2.53355 28.9042 2.16485 29.3999 2.17448 30.0421C2.17994 30.3989 2.31754 30.9351 2.94251 31.4635C3.56496 31.9897 4.65969 32.4708 6.16666 32.6257C5.28718 33.4694 4.92209 34.3296 5.12038 35.1474C5.22013 35.5585 5.50374 35.8964 5.91904 36.099C6.91665 36.5857 8.78379 36.3085 10.5336 35.8088C10.1317 36.468 9.85249 37.1377 9.87502 37.7057C9.89121 38.1193 10.0524 38.4747 10.3411 38.7336C11.8347 40.0736 14.6045 38.5868 16.6056 37.0042C16.5854 38.0687 16.706 39.2644 17.238 39.9625C17.5824 40.4142 17.9967 40.5396 18.2836 40.5653C18.3444 40.5708 18.4051 40.5734 18.4662 40.5734C18.8827 40.5734 19.3033 40.4465 19.7142 40.2021C19.7215 40.3538 19.7399 40.5025 19.7676 40.648C18.9803 41.7273 18.5498 43.0335 18.5498 44.3725V45.7438C18.5498 47.1443 19.4973 48.327 20.7849 48.6864V48.7947C20.7849 49.144 20.5006 49.4282 20.1514 49.4282H17.3602L16.5503 47.203C16.3031 46.5241 15.588 46.1493 14.901 46.3073L13.8981 43.5517C14.6169 43.1806 15.0704 42.4074 15.0222 41.5865L14.9112 39.7045C14.8845 39.2523 14.4986 38.908 14.044 38.934C13.5917 38.9607 13.2467 39.349 13.2733 39.8011L13.3843 41.6829C13.3899 41.7776 13.3635 41.8694 13.3136 41.9458L12.6685 40.1734C12.5136 39.7477 12.0432 39.528 11.617 39.6831C11.1914 39.8381 10.9718 40.3088 11.1268 40.7345L11.7719 42.507C11.6845 42.4807 11.6053 42.4273 11.5488 42.3512L10.4242 40.8383C10.1536 40.4747 9.63998 40.399 9.27641 40.6695C8.91285 40.9397 8.83716 41.4536 9.10743 41.8172L10.2321 43.3302C10.6297 43.865 11.2598 44.165 11.9044 44.165C12.0552 44.165 12.2067 44.1466 12.3564 44.1129L13.3595 46.8688C12.7317 47.1892 12.4249 47.936 12.6719 48.6151L15.0205 55.0677C15.2298 55.6427 15.7748 56.0004 16.3541 56.0004C16.5147 56.0004 16.678 55.9729 16.8375 55.9149L18.0516 55.473H18.0515C18.786 55.2057 19.1661 54.3907 18.8989 53.656L17.9574 51.0692H20.1514C21.4053 51.0692 22.4255 50.049 22.4255 48.795V48.6867C23.7129 48.3273 24.6606 47.1448 24.6606 45.7441V44.3728C24.6606 44.3027 24.695 44.237 24.7529 44.1973L26.0825 43.2832C26.1549 43.3001 26.2228 43.334 26.2788 43.3849L26.928 43.9745C26.9886 44.0297 27.053 44.0777 27.1192 44.1219C26.9702 44.6263 26.5492 45.0359 25.9404 45.593C24.8111 46.6262 23.2645 48.0414 24.8283 50.9624C24.9763 51.2386 25.2594 51.3956 25.5523 51.3956C25.6829 51.3956 25.8154 51.3644 25.9387 51.2983C26.338 51.0845 26.4885 50.5874 26.2747 50.1879C25.3126 48.391 25.9657 47.7934 27.0478 46.8033C27.0911 46.7637 27.1352 46.7233 27.1795 46.6825V50.9078C27.1795 51.3609 27.5466 51.7281 27.9998 51.7281C28.4529 51.7281 28.8201 51.3609 28.8201 50.9078V46.6825C28.8644 46.7233 28.9085 46.7636 28.9518 46.8033C30.0339 47.7934 30.6869 48.391 29.7248 50.1879C29.511 50.5874 29.6615 51.0845 30.0608 51.2983C30.1841 51.3643 30.3167 51.3956 30.4473 51.3956C30.7401 51.3956 31.0234 51.2386 31.1712 50.9624C32.7351 48.0414 31.1885 46.6262 30.0592 45.593C29.4504 45.0359 29.0294 44.6263 28.8805 44.1219C28.9466 44.0777 29.0111 44.0297 29.0716 43.9747L29.7208 43.3849C29.7769 43.334 29.8446 43.3003 29.917 43.2832L31.2467 44.1973C31.3044 44.237 31.339 44.3027 31.339 44.3728V45.7441C31.339 47.1447 32.2865 48.3273 33.574 48.6867V48.795C33.574 50.049 34.5941 51.0692 35.8481 51.0692H37.6002C38.133 52.765 39.7195 53.9987 41.5891 53.9987C42.2498 53.9987 42.9081 53.8403 43.493 53.5406C43.8961 53.334 44.0556 52.8397 43.849 52.4365C43.6423 52.0332 43.148 51.8738 42.7448 52.0804C42.3854 52.2646 41.9965 52.3579 41.5891 52.3579C40.1887 52.3579 39.0495 51.2187 39.0495 49.8185C39.0495 48.4181 40.1887 47.2789 41.5891 47.2789C42.9174 47.2789 44.0301 48.3153 44.1224 49.6384C44.1539 50.0904 44.5457 50.431 44.9977 50.3997C45.4497 50.3682 45.7905 49.9762 45.759 49.5243C45.6265 47.6245 44.2172 46.084 42.4094 45.7202V44.3731H42.7684C43.2215 44.3731 43.5887 44.0058 43.5887 43.5528C43.5887 43.0998 43.2215 42.7325 42.7684 42.7325H42.4094V42.1366C42.4094 41.6836 42.0421 41.3163 41.5891 41.3163C41.1359 41.3163 40.7688 41.6836 40.7688 42.1366V42.7325H40.4098C39.9566 42.7325 39.5895 43.0998 39.5895 43.5528C39.5895 44.0058 39.9566 44.3731 40.4098 44.3731H40.7688V45.7195C38.9796 46.077 37.5996 47.5799 37.4277 49.4283H35.848C35.4987 49.4283 35.2145 49.1442 35.2145 48.7948V48.6865C36.5019 48.3271 37.4496 47.1446 37.4496 45.7439V44.3726C37.4496 43.0336 37.0191 41.7275 36.2318 40.6481C36.2594 40.5027 36.2778 40.3539 36.2851 40.2022C36.6962 40.4467 37.1167 40.5734 37.5332 40.5734C37.5941 40.5734 37.655 40.5708 37.7158 40.5653C38.0027 40.5396 38.417 40.4142 38.7613 39.9625C39.2933 39.2645 39.4139 38.0688 39.3937 37.0042C40.8486 38.1548 42.7093 39.2549 44.191 39.2547C44.7474 39.2547 45.2505 39.0995 45.6583 38.7336C45.9469 38.4747 46.108 38.1193 46.1243 37.7057C46.1467 37.1377 45.8675 36.468 45.4658 35.8088C47.2155 36.3083 49.0827 36.5858 50.0803 36.099C50.4956 35.8964 50.7792 35.5585 50.8789 35.1474C51.0772 34.3298 50.7121 33.4695 49.8327 32.6257C51.3393 32.4707 52.4345 31.9896 53.0568 31.4635C53.6819 30.935 53.8195 30.3988 53.8248 30.0421C53.8336 29.4617 53.5427 28.9517 52.9584 28.5213C53.642 28.2593 54.1672 27.9024 54.5296 27.4525C54.9709 26.9033 55.1416 26.243 55.0224 25.5427ZM16.485 54.2964L14.2891 48.2629L15.0842 47.9734L17.2801 54.007L16.485 54.2964ZM39.8053 18.4939L40.6421 18.7738C41.2981 18.9932 41.7976 19.5492 41.9455 20.225L42.0505 20.7046L41.7511 20.5901C41.3419 20.4337 40.9124 20.3544 40.4743 20.3544H39.1582C39.3019 19.7551 39.5255 19.1111 39.8053 18.4939ZM31.6135 20.1089C31.9624 19.475 31.7801 18.6804 31.1894 18.2604C30.6742 17.8943 30.4654 17.2945 30.5661 16.4737C31.7479 17.0003 33.3386 17.0741 34.6384 17.0741H37.8406C38.0505 17.0741 38.2465 17.1777 38.3647 17.351L38.462 17.4938C38.004 18.4313 37.6586 19.4383 37.4785 20.3544H36.8912C35.8147 20.3544 34.8353 20.9483 34.3349 21.9044C33.7849 22.9552 33.2138 24.4048 32.7923 25.8047H29.2885C29.8739 23.5406 30.8503 21.4954 31.6135 20.1089ZM15.5241 20.3544C15.0861 20.3544 14.6566 20.4337 14.2473 20.5902L13.9479 20.7047L14.0529 20.225C14.2009 19.5492 14.7003 18.9932 15.3564 18.7738L16.1932 18.4939C16.4729 19.111 16.6965 19.7551 16.8402 20.3544H15.5241ZM19.1071 20.3544H18.5198C18.3397 19.4383 17.9943 18.4314 17.5363 17.4938L17.6335 17.3511C17.7519 17.1776 17.9479 17.0741 18.1578 17.0741H21.3599C22.6599 17.0741 24.2505 17.0003 25.4322 16.4737C25.5329 17.2944 25.3241 17.8943 24.809 18.2604C24.2182 18.6803 24.0359 19.475 24.3848 20.1089C25.1481 21.4954 26.1245 23.5406 26.7099 25.8046H23.2062C22.7847 24.4047 22.2135 22.9551 21.6635 21.9043C21.1631 20.9483 20.1836 20.3544 19.1071 20.3544ZM23.0192 44.3722V45.7436C23.0192 46.5236 22.3845 47.1583 21.6044 47.1583C20.8243 47.1583 20.1896 46.5238 20.1896 45.7436V44.3722C20.1896 43.6617 20.354 42.9636 20.6616 42.3304C21.2449 42.9105 22.0482 43.2696 22.9339 43.2696H23.3837C23.1505 43.5846 23.0192 43.9695 23.0192 44.3722ZM30.1617 41.6289C30.1603 41.6289 30.1588 41.6289 30.1574 41.6289H30.0173C29.4984 41.6289 29.0012 41.8211 28.6172 42.1699L27.9992 42.7313L27.3813 42.17C26.9972 41.8212 26.5 41.629 25.9811 41.629H25.8415C25.8398 41.629 25.8383 41.629 25.8367 41.629H22.9341C22.0608 41.629 21.3503 40.9185 21.3503 40.0452V27.7768C21.3503 27.594 21.499 27.4454 21.6817 27.4454H22.5852C22.586 27.4454 22.5869 27.4456 22.5878 27.4456C22.5889 27.4456 22.59 27.4454 22.5911 27.4454H27.7314H27.7376H28.2594H28.2688H33.4077C33.4088 27.4454 33.4099 27.4456 33.4109 27.4456C33.4118 27.4456 33.4126 27.4454 33.4135 27.4454H34.3169C34.4997 27.4454 34.6483 27.594 34.6483 27.7768V40.0452C34.6483 40.9185 33.938 41.629 33.0646 41.629H30.1617V41.6289ZM35.8086 45.7436C35.8086 46.5236 35.1739 47.1583 34.3938 47.1583C33.6138 47.1583 32.9792 46.5238 32.9792 45.7436V44.3722C32.9792 43.9696 32.8478 43.5846 32.6145 43.2696H33.0644C33.9501 43.2696 34.7533 42.9105 35.3366 42.3304C35.6441 42.9636 35.8086 43.6617 35.8086 44.3722V45.7436ZM53.2513 26.4231C53.0428 26.682 52.3089 27.2957 50.0019 27.4029C49.5946 27.4218 49.263 27.7371 49.2236 28.143C49.1842 28.5488 49.4488 28.922 49.8448 29.0192C51.6892 29.4711 52.1013 29.9191 52.1742 30.0218C51.9724 30.4303 50.2439 31.3779 47.1738 30.908C46.7773 30.8474 46.3939 31.083 46.2696 31.4649C46.1452 31.8469 46.3158 32.2628 46.6726 32.4474C48.453 33.3687 49.2347 34.2449 49.2876 34.6584C48.6037 34.9027 45.859 34.4353 43.3687 33.3079C43.0111 33.146 42.589 33.2602 42.3616 33.5801C42.1343 33.9001 42.1655 34.3363 42.4361 34.6207C43.7873 36.0407 44.4249 37.1595 44.4815 37.5642C44.1755 37.7055 43.4289 37.5872 42.3276 36.997C41.1936 36.3894 39.906 35.4012 38.9677 34.418C38.7176 34.1561 38.3255 34.0889 38.0023 34.2532C37.6796 34.4174 37.5026 34.7739 37.5671 35.1304C37.9222 37.0945 37.7142 38.5715 37.4862 38.9288C37.2483 38.8987 36.8074 38.6728 36.2889 37.987V32.3746C37.7919 32.4508 39.7737 31.9797 41.3316 30.6759C42.5396 29.6649 43.9815 27.7293 43.9906 24.2494C43.9908 24.1549 44.0375 24.0906 44.0767 24.0534C44.1109 24.0209 44.1872 23.9679 44.2941 23.9722C45.0182 24.0062 45.5413 24.186 45.7296 24.4654C45.8907 24.7045 46.1656 24.841 46.4532 24.8263C48.0996 24.7392 49.8358 24.7963 51.0978 24.9786C52.9091 25.2404 53.3821 25.6833 53.4051 25.8179C53.4452 26.0543 53.3977 26.241 53.2513 26.4231ZM24.0938 32.54C23.6406 32.54 23.2735 32.9073 23.2735 33.3604V34.0086C23.2735 34.4617 23.6406 34.8289 24.0938 34.8289C24.5469 34.8289 24.9141 34.4617 24.9141 34.0086V33.3604C24.9141 32.9073 24.5468 32.54 24.0938 32.54ZM29.5678 33.419C29.2262 33.1213 28.7081 33.1569 28.4104 33.4984C28.3492 33.5685 28.2146 33.6861 27.9991 33.6861C27.7836 33.6861 27.649 33.5685 27.5879 33.4984C27.2901 33.1568 26.7719 33.1213 26.4305 33.419C26.0889 33.7166 26.0533 34.2348 26.3509 34.5764C26.7667 35.0533 27.3673 35.3268 27.999 35.3268C28.6308 35.3268 29.2314 35.0534 29.6471 34.5764C29.945 34.2348 29.9093 33.7166 29.5678 33.419Z" fill="black"/>
</g>
<defs>
<clipPath id="clip0_1517_12606">
<rect width="56" height="56" fill="white"/>
</clipPath>
</defs>
</svg>
