<?xml version="1.0" encoding="utf-8"?>
<!-- Generator: Adobe Illustrator 25.4.1, SVG Export Plug-In . SVG Version: 6.00 Build 0)  -->
<svg version="1.1" id="Слой_1" xmlns="http://www.w3.org/2000/svg" xmlns:xlink="http://www.w3.org/1999/xlink" x="0px" y="0px"
	 viewBox="0 0 674 487" style="enable-background:new 0 0 674 487;" xml:space="preserve">
<style type="text/css">
	.st0{display:none;}
	.st1{fill-rule:evenodd;clip-rule:evenodd;fill:#151515;}
</style>
<g class="st0">
	<rect x="113.4" y="0.4" transform="matrix(0.7428 -0.6695 0.6695 0.7428 28.9602 76.2507)" class="st1" width="0.6" height="0"/>
	<polygon class="st1" points="0,67.8 0,67.8 0,67.8 	"/>
	<rect x="81.2" y="0.4" class="st1" width="0" height="0.6"/>
	<polygon class="st1" points="80.8,0.7 80.8,0.7 80.3,0.6 	"/>
	<rect x="80.8" y="0.7" class="st1" width="0" height="0"/>
	<polygon class="st1" points="113.5,0.7 113.5,0.7 113.5,0.7 113.1,1 	"/>
	<polygon class="st1" points="80.8,0 80.8,0 80.8,0 	"/>
	<polygon class="st1" points="0,36.4 0,36.4 0,36.4 	"/>
	<polygon class="st1" points="54.3,1.4 54.3,1.4 55.5,1.4 	"/>
	<polygon class="st1" points="2.5,35.8 1.3,35.8 1.3,35.8 	"/>
	
		<rect x="54.3" y="0.7" transform="matrix(0.9988 -4.879487e-02 4.879487e-02 0.9988 3.143794e-02 2.6673)" class="st1" width="0.6" height="0"/>
	<polygon class="st1" points="55,0.7 55,0.7 55.5,0.6 	"/>
</g>
<path class="st1" d="M1.3,37H1.2v30.2h0.1h1.2v1.2v382.1c0,11.2,3.8,19.9,10.1,25.8c6.2,5.9,15,9.2,24.9,9.2l599.9,0
	c9.9,0,18.6-3.2,24.9-9.2c6.2-5.9,10.1-14.6,10.1-25.8V37.6c0-11.2-3.8-19.9-10.1-25.8c-6.2-5.9-15-9.2-24.9-9.2l-523.3,0h-1.2V1.4
	V1.2H88.2v0.2v1.2H87l-5.5,0l-1.2,0V1.4V1.2H55.5v0.2v1.2h-1.2l-16.9,0c-9.7,0-18.2,3.1-24.4,8.7C6.9,17,2.9,25.2,2.5,35.8l0,1.2
	H1.3z M23.8,33.1c0-4.6,3.8-8.4,8.4-8.4h609.4c4.6,0,8.4,3.8,8.4,8.4v420.6c0,4.6-3.8,8.4-8.4,8.4H32.2c-4.6,0-8.4-3.8-8.4-8.4V33.1
	z"/>
<polygon class="st1" points="54.3,1.4 54.3,2.7 54.3,1.4 "/>
</svg>
